<?xml version="1.0" encoding="UTF-8" standalone="no"?>
<svg
   xmlns:dc="http://purl.org/dc/elements/1.1/"
   xmlns:cc="http://creativecommons.org/ns#"
   xmlns:rdf="http://www.w3.org/1999/02/22-rdf-syntax-ns#"
   xmlns:svg="http://www.w3.org/2000/svg"
   xmlns="http://www.w3.org/2000/svg"
   viewBox="0 0 666.66669 666.66669"
   height="666.66669"
   width="666.66669"
   xml:space="preserve"
   id="svg2"
   version="1.1"><metadata
     id="metadata8"><rdf:RDF><cc:Work
         rdf:about=""><dc:format>image/svg+xml</dc:format><dc:type
           rdf:resource="http://purl.org/dc/dcmitype/StillImage" /></cc:Work></rdf:RDF></metadata><defs
     id="defs6"><clipPath
       id="clipPath28"
       clipPathUnits="userSpaceOnUse"><path
         id="path26"
         d="M 0,500 H 500 V 0 H 0 Z" /></clipPath><clipPath
       id="clipPath64"
       clipPathUnits="userSpaceOnUse"><path
         id="path62"
         d="M 0,500 H 500 V 0 H 0 Z" /></clipPath><clipPath
       id="clipPath88"
       clipPathUnits="userSpaceOnUse"><path
         id="path86"
         d="M 0,500 H 500 V 0 H 0 Z" /></clipPath><clipPath
       id="clipPath108"
       clipPathUnits="userSpaceOnUse"><path
         id="path106"
         d="M 0,500 H 500 V 0 H 0 Z" /></clipPath><clipPath
       id="clipPath210"
       clipPathUnits="userSpaceOnUse"><path
         id="path208"
         d="M 0,500 H 500 V 0 H 0 Z" /></clipPath><clipPath
       id="clipPath246"
       clipPathUnits="userSpaceOnUse"><path
         id="path244"
         d="M 0,500 H 500 V 0 H 0 Z" /></clipPath><clipPath
       id="clipPath262"
       clipPathUnits="userSpaceOnUse"><path
         id="path260"
         d="M 0,500 H 500 V 0 H 0 Z" /></clipPath><clipPath
       id="clipPath290"
       clipPathUnits="userSpaceOnUse"><path
         id="path288"
         d="M 0,500 H 500 V 0 H 0 Z" /></clipPath><clipPath
       id="clipPath308"
       clipPathUnits="userSpaceOnUse"><path
         id="path306"
         d="M 0,500 H 500 V 0 H 0 Z" /></clipPath><clipPath
       id="clipPath332"
       clipPathUnits="userSpaceOnUse"><path
         id="path330"
         d="M 0,500 H 500 V 0 H 0 Z" /></clipPath><clipPath
       id="clipPath362"
       clipPathUnits="userSpaceOnUse"><path
         id="path360"
         d="M 0,500 H 500 V 0 H 0 Z" /></clipPath><clipPath
       id="clipPath398"
       clipPathUnits="userSpaceOnUse"><path
         id="path396"
         d="M 0,500 H 500 V 0 H 0 Z" /></clipPath></defs><g
     transform="matrix(1.3333333,0,0,-1.3333333,0,666.66667)"
     id="g10"><path
       id="path12"
       style="fill:#ffffff;fill-opacity:1;fill-rule:nonzero;stroke:none"
       d="M 0.667,0 H 500 V 500 H 0.667 Z" /><text
       id="text16"
       style="font-variant:normal;font-weight:900;font-stretch:normal;font-size:16.12890053px;font-family:'Lato Black';-inkscape-font-specification:Lato-Black;writing-mode:lr-tb;fill:#2d5d92;fill-opacity:1;fill-rule:nonzero;stroke:none"
       transform="matrix(1,0,0,-1,202.3208,68.7373)"><tspan
         id="tspan14"
         y="0"
         x="0 13.886983 24.741734 34.822296 41.451275 54.531811 65.386559 77.596138 85.241234">DELIVER-O</tspan></text>
<text
       id="text20"
       style="font-variant:normal;font-weight:500;font-stretch:normal;font-size:6.45160007px;font-family:'Lato Medium';-inkscape-font-specification:Lato-Medium;writing-mode:lr-tb;fill:#8ab8e4;fill-opacity:1;fill-rule:nonzero;stroke:none"
       transform="matrix(1,0,0,-1,223.5737,58.043)"><tspan
         id="tspan18"
         y="0"
         x="0 4.8322482 7.3096628 12.264492 16.632225 18.903189 24.451565 28.819298 32.787033 35.264446 40.303146 44.670879 49.196674">BIKE DELIVERY</tspan></text>
<g
       id="g22"><g
         clip-path="url(#clipPath28)"
         id="g24"><g
           transform="translate(298.1602,109.9521)"
           id="g30"><path
             id="path32"
             style="fill:#8ab8e4;fill-opacity:1;fill-rule:nonzero;stroke:none"
             d="m 0,0 c 0,-10.173 -8.247,-18.42 -18.421,-18.42 -10.174,0 -18.421,8.247 -18.421,18.42 0,10.174 8.247,18.421 18.421,18.421 C -8.247,18.421 0,10.174 0,0" /></g><g
           transform="translate(279.7393,126.9648)"
           id="g34"><path
             id="path36"
             style="fill:#2d5d92;fill-opacity:1;fill-rule:nonzero;stroke:none"
             d="m 0,0 c -9.381,0 -17.013,-7.632 -17.013,-17.013 0,-9.381 7.632,-17.011 17.013,-17.011 9.381,0 17.013,7.63 17.013,17.011 C 17.013,-7.632 9.381,0 0,0 m 0,-36.841 c -10.934,0 -19.829,8.895 -19.829,19.828 0,10.934 8.895,19.829 19.829,19.829 10.934,0 19.829,-8.895 19.829,-19.829 0,-10.933 -8.895,-19.828 -19.829,-19.828" /></g><path
           id="path38"
           style="fill:#2d5d92;fill-opacity:1;fill-rule:nonzero;stroke:none"
           d="m 229.319,136.842 h -21.893 v 2.816 h 21.893 z" /><path
           id="path40"
           style="fill:#2d5d92;fill-opacity:1;fill-rule:nonzero;stroke:none"
           d="m 212.423,129.785 h -16.225 v 2.816 h 16.225 z" /><g
           transform="translate(226.457,110.583)"
           id="g42"><path
             id="path44"
             style="fill:#8ab8e4;fill-opacity:1;fill-rule:nonzero;stroke:none"
             d="M 0,0 13.204,-0.199 C 13.051,5.84 9.742,11.095 4.863,13.992 L -0.834,1.679 C -0.433,1.2 -0.133,0.634 0,0" /></g><g
           transform="translate(222.6694,92.9404)"
           id="g46"><path
             id="path48"
             style="fill:#8ab8e4;fill-opacity:1;fill-rule:nonzero;stroke:none"
             d="M 0,0 C 8.57,0 15.662,6.375 16.826,14.629 L 3.294,14.834 C 2.614,13.722 1.399,12.972 0,12.972 c -2.138,0 -3.872,1.734 -3.872,3.872 0,2.138 1.734,3.872 3.872,3.872 0.163,0 0.316,-0.029 0.474,-0.048 l 5.644,12.2 C 4.216,33.604 2.159,34.024 0,34.024 c -3.913,0 -7.511,-1.341 -10.389,-3.57 h 6.092 v -2.816 h -8.968 C -15.604,24.724 -17.013,21.031 -17.013,17.012 -17.013,7.631 -9.381,0 0,0" /></g><g
           transform="translate(279.7393,92.9404)"
           id="g50"><path
             id="path52"
             style="fill:#2d5d92;fill-opacity:1;fill-rule:nonzero;stroke:none"
             d="m 0,0 c -9.381,0 -17.013,7.631 -17.013,17.012 0,6.559 3.738,12.253 9.189,15.091 l 5.137,-12.311 c -0.728,-0.703 -1.185,-1.687 -1.185,-2.779 0,-2.139 1.733,-3.872 3.872,-3.872 2.139,0 3.872,1.733 3.872,3.872 0,2.137 -1.733,3.871 -3.872,3.871 -0.029,0 -0.058,-0.008 -0.087,-0.009 l -5.142,12.319 c 1.65,0.535 3.405,0.83 5.229,0.83 9.381,0 17.013,-7.631 17.013,-17.012 C 17.013,7.631 9.381,0 0,0 m -25.994,17.23 -5.342,0.082 -10.053,26.555 27.527,-0.416 z m -11.267,0.17 c -0.14,7.188 -4.118,13.441 -9.97,16.804 l 3.569,7.713 9.298,-24.561 z m -16.021,0.243 c -0.133,0.633 -0.433,1.2 -0.835,1.678 l 5.698,12.314 c 4.879,-2.898 8.188,-8.153 8.34,-14.192 z m -13.559,14.961 c 10e-4,10e-4 0.002,10e-4 0.003,0.002 -0.001,-0.001 -0.002,-0.001 -0.003,-0.002 M 0,36.841 c -2.209,0 -4.327,-0.379 -6.313,-1.048 l -7.93,18.999 h 12.788 v 2.816 h -14.901 c -0.471,0 -0.911,-0.235 -1.172,-0.628 -0.261,-0.391 -0.309,-0.887 -0.127,-1.322 l 3.92,-9.392 -28.726,0.434 -2.497,6.596 c -0.208,0.548 -0.732,0.91 -1.317,0.91 h -7.979 V 51.39 h 7.006 l 2.19,-5.785 -4.709,-10.175 c -2.263,0.9 -4.722,1.411 -7.303,1.411 -4.604,0 -8.834,-1.59 -12.199,-4.237 h -7.585 v -2.816 h 15.487 v 2.816 h -2.468 c 2.074,0.91 4.359,1.42 6.765,1.42 2.159,0 4.216,-0.42 6.118,-1.156 l -5.644,-12.2 c -0.157,0.019 -0.311,0.048 -0.474,0.048 -2.138,0 -3.871,-1.734 -3.871,-3.872 0,-2.138 1.733,-3.872 3.871,-3.872 1.4,0 2.614,0.75 3.295,1.862 l 13.531,-0.205 C -41.408,6.375 -48.5,0 -57.07,0 c -9.381,0 -17.013,7.631 -17.013,17.012 0,4.019 1.409,7.712 3.749,10.626 h -1.767 -1.681 c -1.963,-3.076 -3.116,-6.715 -3.116,-10.626 0,-10.934 8.895,-19.828 19.828,-19.828 10.111,0 18.463,7.611 19.665,17.402 L -25.122,14.4 h 0.021 c 0.548,0 1.047,0.319 1.278,0.818 l 12.116,26.187 2.798,-6.703 c -6.466,-3.27 -10.92,-9.963 -10.92,-17.69 0,-10.934 8.895,-19.828 19.829,-19.828 10.934,0 19.829,8.894 19.829,19.828 0,10.933 -8.895,19.829 -19.829,19.829" /></g></g></g><text
       id="text56"
       style="font-style:italic;font-variant:normal;font-weight:900;font-stretch:normal;font-size:17.20409966px;font-family:'Roboto Black';-inkscape-font-specification:Roboto-BlackItalic;writing-mode:lr-tb;fill:#3b6eaf;fill-opacity:1;fill-rule:nonzero;stroke:none"
       transform="matrix(1,0,0,-1,247.2788,191.0684)"><tspan
         id="tspan54"
         y="0"
         x="0 12.12889 18.752468 30.520073">BIKE</tspan></text>
<g
       id="g58"><g
         clip-path="url(#clipPath64)"
         id="g60"><g
           transform="translate(261.5732,244.9609)"
           id="g66"><path
             id="path68"
             style="fill:#3b6eaf;fill-opacity:1;fill-rule:nonzero;stroke:none"
             d="m 0,0 c 2.013,-1.328 4.035,-2.63 6.146,-3.742 25.007,-13.54 37.762,21.94 16.687,30.306 -20.761,8.217 -37.81,-34.899 -62.342,-37.798 -24.037,-1.365 -32.181,30.39 -12.156,40.936 10.53,5.488 18.291,0.977 27.036,-6.975 -8.945,5.893 -16.366,9.939 -25.348,4.062 -3.708,-2.367 -6.444,-6.093 -7.534,-10.21 -3.657,-13.627 9.6,-25.548 21.642,-20.245 15.816,6.907 25.914,27.67 44.583,35.888 C 25.297,39.569 43.421,22.374 37.156,4.792 33.22,-6.385 20.932,-11.793 12.021,-8.269 7.362,-6.322 3.563,-3.237 0,0" /></g><g
           transform="translate(227.645,289.5522)"
           id="g70"><path
             id="path72"
             style="fill:#bcbcbc;fill-opacity:1;fill-rule:nonzero;stroke:none"
             d="M 0,0 H 2.852 V 3.427 H -9.852 V 0 h 6.047 l 5.883,-12.185 c 0.286,-0.592 0.885,-0.968 1.543,-0.968 h 18.905 v 3.427 H 4.696 Z" /></g><g
           transform="translate(270.6992,296.2759)"
           id="g74"><path
             id="path76"
             style="fill:#bcbcbc;fill-opacity:1;fill-rule:nonzero;stroke:none"
             d="m 0,0 h -10.644 c -0.579,0 -1.118,-0.292 -1.434,-0.777 -0.317,-0.484 -0.367,-1.096 -0.134,-1.626 l 6.59,-14.996 3.137,1.379 -5.534,12.593 H 0 Z" /></g></g></g><text
       id="text80"
       style="font-style:italic;font-variant:normal;font-weight:900;font-stretch:normal;font-size:17.20409966px;font-family:'Roboto Black';-inkscape-font-specification:Roboto-BlackItalic;writing-mode:lr-tb;fill:#a0a0a0;fill-opacity:1;fill-rule:nonzero;stroke:none"
       transform="matrix(1,0,0,-1,208.8857,208.958)"><tspan
         id="tspan78"
         y="0"
         x="0 6.6235785 19.715899 30.71792 37.341499 50.433819 56.81654 67.718781">INFINITY</tspan></text>
<g
       id="g82"><g
         clip-path="url(#clipPath88)"
         id="g84"><g
           transform="translate(394.6553,408.6904)"
           id="g90"><path
             id="path92"
             style="fill:#de3205;fill-opacity:1;fill-rule:nonzero;stroke:none"
             d="m 0,0 -6.617,17.661 24.575,-0.426 0.002,0.099 0.261,-0.495 z m -8.34,-6.998 c 0.188,0.988 0.292,1.987 0.292,2.992 0,0.816 -0.084,1.612 -0.238,2.382 L -9.62,1.937 c -1.012,1.784 -2.466,3.281 -4.209,4.354 l 3.801,8.214 8.056,-21.503 z m -11.637,0 4.326,9.35 c 1.994,-1.414 3.302,-3.733 3.302,-6.358 0,-1 -0.139,-2.001 -0.386,-2.992 z M 41.154,8.093 c -2.85,0 -5.554,-1.009 -7.695,-2.778 l 2.075,-3.937 c 1.459,1.524 3.474,2.414 5.62,2.414 4.3,0 7.798,-3.498 7.798,-7.798 0,-8.759 -10.301,-17.661 -16.056,-17.661 -5.616,0 -16.057,9.078 -16.057,17.661 0,4.3 3.498,7.798 7.798,7.798 0.16,0 0.317,-0.02 0.476,-0.029 l 6.955,-13.194 3.805,2.006 -18.995,36.034 H 28.215 V 32.91 H 13.313 c -0.753,0 -1.452,-0.394 -1.841,-1.039 -0.389,-0.645 -0.412,-1.448 -0.061,-2.114 l 4.313,-8.181 -23.963,0.415 -2.294,6.121 c -0.315,0.84 -1.117,1.396 -2.014,1.396 h -7.978 v -4.301 h 6.487 l 1.89,-5.042 -13.145,-28.41 c -0.308,-0.666 -0.255,-1.443 0.141,-2.061 0.394,-0.618 1.078,-0.992 1.811,-0.992 h 8.837 c -3.333,-5.806 -9.781,-10.369 -13.901,-10.369 -5.616,0 -16.057,9.078 -16.057,17.661 0,4.3 3.498,7.798 7.798,7.798 2.6,0 5.019,-1.291 6.475,-3.452 0.399,-0.594 1.068,-0.95 1.784,-0.95 0.716,0 1.384,0.356 1.784,0.95 0.522,0.777 1.174,1.436 1.909,1.969 l 2.598,5.612 c -2.362,-0.388 -4.55,-1.457 -6.291,-3.085 -2.218,2.073 -5.156,3.257 -8.259,3.257 -6.671,0 -12.099,-5.427 -12.099,-12.099 0,-11.325 12.7,-21.962 20.358,-21.962 5.967,0 14.994,6.46 18.689,14.67 H 1.131 c 0.705,0 1.365,0.345 1.767,0.925 0.402,0.58 0.495,1.319 0.247,1.979 L 1.63,-4.351 20.297,12.9 22.904,7.954 C 17.053,7.109 12.538,2.076 12.538,-4.006 c 0,-11.325 12.7,-21.962 20.358,-21.962 7.657,0 20.357,10.637 20.357,21.962 0,6.672 -5.428,12.099 -12.099,12.099" /></g></g></g><text
       id="text96"
       style="font-variant:normal;font-weight:normal;font-stretch:normal;font-size:32.52700043px;font-family:Milkshake;-inkscape-font-specification:Milkshake;writing-mode:lr-tb;fill:#de3205;fill-opacity:1;fill-rule:nonzero;stroke:none"
       transform="matrix(1,0,0,-1,383.79,355.042)"><tspan
         id="tspan94"
         y="0"
         x="0 28.428598 42.903114 56.434345">Love</tspan></text>
<text
       id="text100"
       style="font-variant:normal;font-weight:900;font-stretch:normal;font-size:12.17539978px;font-family:'Lato Black';-inkscape-font-specification:Lato-Black;writing-mode:lr-tb;fill:#3b6eaf;fill-opacity:1;fill-rule:nonzero;stroke:none"
       transform="matrix(1,0,0,-1,354.5391,368.0361)"><tspan
         id="tspan98"
         y="0"
         x="0 8.1453428 11.931892 20.527725">BIKE</tspan></text>
<g
       id="g102"><g
         clip-path="url(#clipPath108)"
         id="g104"><path
           id="path110"
           style="fill:#4ab6bf;fill-opacity:1;fill-rule:nonzero;stroke:none"
           d="m 381.757,361.667 h -26.624 v 2.222 h 26.624 z" /><g
           transform="translate(127.5156,94.7158)"
           id="g112"><path
             id="path114"
             style="fill:#878787;fill-opacity:1;fill-rule:nonzero;stroke:none"
             d="m 0,0 c -11.585,0 -21.01,9.426 -21.01,21.011 0,8.014 4.514,14.991 11.131,18.532 l 0.441,-1.106 3.276,1.306 -0.474,1.188 c 2.089,0.697 4.316,1.09 6.636,1.09 11.585,0 21.01,-9.425 21.01,-21.01 C 21.01,9.426 11.585,0 0,0 M -37.069,21.011 C -37.069,9.426 -46.494,0 -58.079,0 c -11.585,0 -21.01,9.426 -21.01,21.011 0,11.585 9.425,21.01 21.01,21.01 11.585,0 21.01,-9.425 21.01,-21.01 M 0,44.959 c -2.704,0 -5.302,-0.457 -7.729,-1.287 l -4.187,10.502 h 7.781 v 3.525 h -10.382 c -0.585,0 -1.131,-0.289 -1.46,-0.773 -0.328,-0.485 -0.394,-1.1 -0.178,-1.643 l 2.94,-7.372 h -33.112 l -3.506,8.686 c -0.269,0.666 -0.916,1.102 -1.635,1.102 h -9.795 v -3.525 h 8.606 l 4.612,-11.426 c -3.055,1.415 -6.453,2.211 -10.034,2.211 -13.206,0 -23.949,-10.743 -23.949,-23.948 0,-13.205 10.743,-23.949 23.949,-23.949 13.205,0 23.948,10.744 23.948,23.949 0,7.557 -3.523,14.304 -9.008,18.696 l 0.106,0.043 -1.871,4.636 h 33.094 l 0.837,-2.1 C -18.672,38.3 -23.949,30.263 -23.949,21.011 -23.949,7.806 -13.206,-2.938 0,-2.938 c 13.205,0 23.948,10.744 23.948,23.949 0,13.205 -10.743,23.948 -23.948,23.948" /></g><g
           transform="translate(90.7539,115.7266)"
           id="g116"><path
             id="path118"
             style="fill:#fdf7d0;fill-opacity:1;fill-rule:nonzero;stroke:none"
             d="m 0,0 c 0,-11.773 -9.544,-21.317 -21.317,-21.317 -11.774,0 -21.318,9.544 -21.318,21.317 0,11.773 9.544,21.317 21.318,21.317 C -9.544,21.317 0,11.773 0,0" /></g><g
           transform="translate(69.4365,137.0439)"
           id="g120"><path
             id="path122"
             style="fill:#ea971e;fill-opacity:1;fill-rule:nonzero;stroke:none"
             d="m 0,0 c -11.773,0 -21.318,-9.544 -21.318,-21.317 0,-11.774 9.545,-21.318 21.318,-21.318 11.773,0 21.317,9.544 21.317,21.318 C 21.317,-9.544 11.773,0 0,0 m 0,-2.786 c 10.218,0 18.531,-8.314 18.531,-18.531 0,-10.218 -8.313,-18.532 -18.531,-18.532 -10.218,0 -18.531,8.314 -18.531,18.532 0,10.217 8.313,18.531 18.531,18.531" /></g><g
           transform="translate(72.999,129.5342)"
           id="g124"><path
             id="path126"
             style="fill:#f7e05d;fill-opacity:1;fill-rule:nonzero;stroke:none"
             d="m 0,0 c 0,-2.15 -1.595,-12.088 -3.563,-12.088 -1.967,0 -3.562,9.938 -3.562,12.088 0,2.15 1.595,3.895 3.562,3.895 C -1.595,3.895 0,2.15 0,0" /></g><g
           transform="translate(72.999,101.9189)"
           id="g128"><path
             id="path130"
             style="fill:#f7e05d;fill-opacity:1;fill-rule:nonzero;stroke:none"
             d="M 0,0 C 0,2.151 -1.595,12.088 -3.563,12.088 -5.53,12.088 -7.125,2.151 -7.125,0 c 0,-2.15 1.595,-3.895 3.562,-3.895 C -1.595,-3.895 0,-2.15 0,0" /></g><g
           transform="translate(62.1919,128.0088)"
           id="g132"><path
             id="path134"
             style="fill:#f7e05d;fill-opacity:1;fill-rule:nonzero;stroke:none"
             d="m 0,0 c 1.521,-1.521 7.42,-9.675 6.028,-11.066 -1.391,-1.391 -9.545,4.507 -11.066,6.028 -1.521,1.521 -1.626,3.882 -0.235,5.273 C -3.881,1.626 -1.521,1.521 0,0" /></g><g
           transform="translate(81.7188,108.4824)"
           id="g136"><path
             id="path138"
             style="fill:#f7e05d;fill-opacity:1;fill-rule:nonzero;stroke:none"
             d="m 0,0 c -1.521,1.521 -9.675,7.42 -11.066,6.028 -1.392,-1.391 4.507,-9.546 6.028,-11.066 1.52,-1.522 3.881,-1.626 5.273,-0.235 C 1.626,-3.882 1.521,-1.521 0,0" /></g><g
           transform="translate(55.6289,119.2891)"
           id="g140"><path
             id="path142"
             style="fill:#f7e05d;fill-opacity:1;fill-rule:nonzero;stroke:none"
             d="M 0,0 C 2.151,0 12.088,-1.595 12.088,-3.563 12.088,-5.53 2.151,-7.125 0,-7.125 c -2.151,0 -3.895,1.595 -3.895,3.562 C -3.895,-1.595 -2.151,0 0,0" /></g><g
           transform="translate(83.2437,119.2891)"
           id="g144"><path
             id="path146"
             style="fill:#f7e05d;fill-opacity:1;fill-rule:nonzero;stroke:none"
             d="m 0,0 c -2.15,0 -12.088,-1.595 -12.088,-3.563 0,-1.967 9.938,-3.562 12.088,-3.562 2.151,0 3.895,1.595 3.895,3.562 C 3.895,-1.595 2.151,0 0,0" /></g><g
           transform="translate(57.1538,108.4824)"
           id="g148"><path
             id="path150"
             style="fill:#f7e05d;fill-opacity:1;fill-rule:nonzero;stroke:none"
             d="M 0,0 C 1.521,1.521 9.675,7.42 11.066,6.028 12.458,4.637 6.559,-3.518 5.038,-5.038 3.518,-6.56 1.157,-6.664 -0.235,-5.273 -1.626,-3.882 -1.521,-1.521 0,0" /></g><g
           transform="translate(76.6807,128.0088)"
           id="g152"><path
             id="path154"
             style="fill:#f7e05d;fill-opacity:1;fill-rule:nonzero;stroke:none"
             d="m 0,0 c -1.521,-1.521 -7.42,-9.675 -6.028,-11.066 1.391,-1.391 9.546,4.507 11.066,6.028 1.521,1.521 1.626,3.882 0.235,5.273 C 3.881,1.626 1.521,1.521 0,0" /></g><g
           transform="translate(148.833,115.7266)"
           id="g156"><path
             id="path158"
             style="fill:#fdf7d0;fill-opacity:1;fill-rule:nonzero;stroke:none"
             d="m 0,0 c 0,-11.773 -9.544,-21.317 -21.317,-21.317 -11.774,0 -21.318,9.544 -21.318,21.317 0,11.773 9.544,21.317 21.318,21.317 C -9.544,21.317 0,11.773 0,0" /></g><g
           transform="translate(127.5156,137.0439)"
           id="g160"><path
             id="path162"
             style="fill:#ea971e;fill-opacity:1;fill-rule:nonzero;stroke:none"
             d="m 0,0 c -11.773,0 -21.318,-9.544 -21.318,-21.317 0,-11.774 9.545,-21.318 21.318,-21.318 11.773,0 21.317,9.544 21.317,21.318 C 21.317,-9.544 11.773,0 0,0 m 0,-2.786 c 10.218,0 18.531,-8.314 18.531,-18.531 0,-10.218 -8.313,-18.532 -18.531,-18.532 -10.218,0 -18.531,8.314 -18.531,18.532 0,10.217 8.313,18.531 18.531,18.531" /></g><g
           transform="translate(131.0781,129.5342)"
           id="g164"><path
             id="path166"
             style="fill:#f7e05d;fill-opacity:1;fill-rule:nonzero;stroke:none"
             d="m 0,0 c 0,-2.15 -1.595,-12.088 -3.563,-12.088 -1.967,0 -3.562,9.938 -3.562,12.088 0,2.15 1.595,3.895 3.562,3.895 C -1.595,3.895 0,2.15 0,0" /></g><g
           transform="translate(131.0781,101.9189)"
           id="g168"><path
             id="path170"
             style="fill:#f7e05d;fill-opacity:1;fill-rule:nonzero;stroke:none"
             d="M 0,0 C 0,2.151 -1.595,12.088 -3.563,12.088 -5.53,12.088 -7.125,2.151 -7.125,0 c 0,-2.15 1.595,-3.895 3.562,-3.895 C -1.595,-3.895 0,-2.15 0,0" /></g><g
           transform="translate(120.2715,128.0088)"
           id="g172"><path
             id="path174"
             style="fill:#f7e05d;fill-opacity:1;fill-rule:nonzero;stroke:none"
             d="M 0,0 C 1.521,-1.521 7.419,-9.675 6.028,-11.066 4.637,-12.457 -3.518,-6.559 -5.039,-5.038 -6.56,-3.517 -6.665,-1.156 -5.273,0.235 -3.882,1.626 -1.521,1.521 0,0" /></g><g
           transform="translate(139.7983,108.4824)"
           id="g176"><path
             id="path178"
             style="fill:#f7e05d;fill-opacity:1;fill-rule:nonzero;stroke:none"
             d="M 0,0 C -1.521,1.521 -9.676,7.42 -11.067,6.028 -12.458,4.637 -6.56,-3.518 -5.039,-5.038 -3.518,-6.56 -1.157,-6.664 0.234,-5.273 1.625,-3.882 1.521,-1.521 0,0" /></g><g
           transform="translate(113.708,119.2891)"
           id="g180"><path
             id="path182"
             style="fill:#f7e05d;fill-opacity:1;fill-rule:nonzero;stroke:none"
             d="M 0,0 C 2.151,0 12.088,-1.595 12.088,-3.563 12.088,-5.53 2.151,-7.125 0,-7.125 c -2.151,0 -3.895,1.595 -3.895,3.562 C -3.895,-1.595 -2.151,0 0,0" /></g><g
           transform="translate(141.3232,119.2891)"
           id="g184"><path
             id="path186"
             style="fill:#f7e05d;fill-opacity:1;fill-rule:nonzero;stroke:none"
             d="m 0,0 c -2.151,0 -12.088,-1.595 -12.088,-3.563 0,-1.967 9.937,-3.562 12.088,-3.562 2.151,0 3.894,1.595 3.894,3.562 C 3.894,-1.595 2.151,0 0,0" /></g><g
           transform="translate(115.2329,108.4824)"
           id="g188"><path
             id="path190"
             style="fill:#f7e05d;fill-opacity:1;fill-rule:nonzero;stroke:none"
             d="M 0,0 C 1.521,1.521 9.675,7.42 11.067,6.028 12.458,4.637 6.559,-3.518 5.039,-5.038 3.518,-6.56 1.157,-6.664 -0.234,-5.273 -1.626,-3.882 -1.521,-1.521 0,0" /></g><g
           transform="translate(134.7598,128.0088)"
           id="g192"><path
             id="path194"
             style="fill:#f7e05d;fill-opacity:1;fill-rule:nonzero;stroke:none"
             d="m 0,0 c -1.521,-1.521 -7.419,-9.675 -6.028,-11.066 1.391,-1.391 9.546,4.507 11.067,6.028 1.52,1.521 1.625,3.882 0.234,5.273 C 3.882,1.626 1.521,1.521 0,0" /></g></g></g><text
       id="text198"
       style="font-variant:normal;font-weight:normal;font-stretch:normal;font-size:17.55209923px;font-family:'Bree Serif';-inkscape-font-specification:BreeSerif-Regular;writing-mode:lr-tb;fill:#878787;fill-opacity:1;fill-rule:nonzero;stroke:none"
       transform="matrix(1,0,0,-1,109.1714,67.5547)"><tspan
         id="tspan196"
         y="0"
         x="0 10.566364 15.954859 26.872265">BIKE</tspan></text>
<text
       id="text202"
       style="font-variant:normal;font-weight:normal;font-stretch:normal;font-size:22.58230019px;font-family:Pacifico;-inkscape-font-specification:Pacifico;writing-mode:lr-tb;fill:#ea971e;fill-opacity:1;fill-rule:nonzero;stroke:none"
       transform="matrix(1,0,0,-1,51.2739,67.5547)"><tspan
         id="tspan200"
         y="0"
         x="0 21.385439 32.089447 38.028595 46.338879">Juice</tspan></text>
<g
       id="g204"><g
         clip-path="url(#clipPath210)"
         id="g206"><path
           id="path212"
           style="fill:#f7e05d;fill-opacity:1;fill-rule:nonzero;stroke:none"
           d="M 114.547,54.778 H 82.404 v 3.053 h 32.143 z" /><g
           transform="translate(129.1523,253.9121)"
           id="g214"><path
             id="path216"
             style="fill:#2e50a2;fill-opacity:1;fill-rule:nonzero;stroke:none"
             d="m 0,0 c -1.486,0 -2.691,1.205 -2.691,2.691 0,0.885 0.433,1.664 1.093,2.155 -0.733,0.341 -1.546,0.536 -2.407,0.536 -3.158,0 -5.717,-2.56 -5.717,-5.717 0,-3.158 2.559,-5.718 5.717,-5.718 3.157,0 5.717,2.56 5.717,5.718 0,0.308 -0.031,0.607 -0.078,0.902 C 1.18,0.217 0.618,0 0,0" /></g><g
           transform="translate(76.1436,253.9121)"
           id="g218"><path
             id="path220"
             style="fill:#2e50a2;fill-opacity:1;fill-rule:nonzero;stroke:none"
             d="m 0,0 c -1.486,0 -2.691,1.205 -2.691,2.691 0,0.885 0.433,1.664 1.093,2.155 -0.733,0.341 -1.546,0.536 -2.407,0.536 -3.158,0 -5.717,-2.56 -5.717,-5.717 0,-3.158 2.559,-5.718 5.717,-5.718 3.158,0 5.717,2.56 5.717,5.718 0,0.308 -0.031,0.607 -0.078,0.902 C 1.18,0.217 0.618,0 0,0" /></g><g
           transform="translate(71.8037,237.0078)"
           id="g222"><path
             id="path224"
             style="fill:#71a8ff;fill-opacity:1;fill-rule:nonzero;stroke:none"
             d="m 0,0 c -9.136,0 -16.569,7.433 -16.569,16.569 0,9.137 7.433,16.57 16.569,16.57 9.136,0 16.569,-7.433 16.569,-16.57 C 16.569,7.433 9.136,0 0,0 m 0,37.764 c -11.687,0 -21.194,-9.508 -21.194,-21.195 0,-11.686 9.507,-21.194 21.194,-21.194 11.687,0 21.194,9.508 21.194,21.194 0,11.687 -9.507,21.195 -21.194,21.195" /></g><g
           transform="translate(125.1475,237.0078)"
           id="g226"><path
             id="path228"
             style="fill:#71a8ff;fill-opacity:1;fill-rule:nonzero;stroke:none"
             d="m 0,0 c -9.136,0 -16.569,7.433 -16.569,16.569 0,9.065 7.319,16.444 16.357,16.559 C 0.951,30.694 2.077,28.202 3.301,25.676 3.312,28.103 3.078,30.52 2.637,32.908 10.521,31.639 16.569,24.806 16.569,16.569 16.569,7.433 9.136,0 0,0 m 1.461,37.689 c -0.051,0.168 -0.098,0.338 -0.152,0.505 -1.302,4.066 -3.256,7.992 -5.913,11.479 -0.666,0.87 -1.387,1.702 -2.132,2.514 -0.397,0.398 -0.753,0.776 -1.199,1.178 -0.461,0.397 -0.898,0.821 -1.414,1.146 -1.976,1.406 -4.303,2.279 -6.665,2.471 -2.354,0.233 -4.736,-0.212 -6.778,-1.223 -2.048,-1.004 -3.709,-2.633 -4.714,-4.493 3.471,2.465 7.453,3.081 10.9,2.128 0.866,-0.204 1.677,-0.57 2.46,-0.936 0.752,-0.438 1.508,-0.858 2.143,-1.439 0.339,-0.26 0.63,-0.575 0.939,-0.867 0.307,-0.303 0.642,-0.697 0.956,-1.048 0.634,-0.725 1.257,-1.464 1.836,-2.245 2.177,-2.853 4.08,-5.973 5.805,-9.252 C -12.994,36.38 -21.194,27.42 -21.194,16.569 -21.194,4.883 -11.687,-4.625 0,-4.625 c 11.687,0 21.194,9.508 21.194,21.194 0,11.194 -8.728,20.365 -19.733,21.12" /></g><g
           transform="translate(111.8906,279.999)"
           id="g230"><path
             id="path232"
             style="fill:#71a8ff;fill-opacity:1;fill-rule:nonzero;stroke:none"
             d="M 0,0 C 0.941,0.518 1.925,0.949 2.894,1.48 0.721,1.3 -1.472,0.929 -3.581,0.257 c -2.141,-0.6 -4.189,-1.504 -6.17,-2.543 -1.991,-1.032 -3.859,-2.298 -5.628,-3.701 -0.686,-0.535 -1.335,-1.119 -1.977,-1.713 -0.045,0.131 -0.078,0.264 -0.129,0.393 -0.53,1.416 -1.014,2.851 -1.71,4.197 -1.253,2.752 -2.913,5.301 -4.77,7.654 -1.864,2.353 -4.019,4.456 -6.371,6.265 -2.362,1.787 -4.896,3.368 -7.676,4.336 2.171,-1.954 4.153,-3.986 5.956,-6.149 1.813,-2.145 3.476,-4.375 4.915,-6.724 1.46,-2.33 2.769,-4.736 3.811,-7.253 1.125,-2.484 1.898,-5.099 2.646,-7.72 l 0.037,-0.129 c 0.136,-0.476 0.428,-0.911 0.863,-1.22 1.017,-0.723 2.428,-0.484 3.15,0.532 0.488,0.685 1.202,1.501 1.852,2.24 0.679,0.749 1.392,1.473 2.125,2.186 1.469,1.42 3.03,2.767 4.683,4.013 1.654,1.245 3.378,2.432 5.195,3.51 C -1.885,-0.995 -0.935,-0.536 0,0" /></g></g></g><text
       id="text238"
       style="font-style:italic;font-variant:normal;font-weight:900;font-stretch:normal;font-size:18.9557991px;font-family:'Roboto Black';-inkscape-font-specification:Roboto-BlackItalic;writing-mode:lr-tb;fill:#71a8ff;fill-opacity:1;fill-rule:nonzero;stroke:none"
       transform="matrix(1,0,0,-1,50.9844,210.0605)"><tspan
         id="tspan234"
         y="0"
         x="0 10.226654 15.629057 28.15884">FIND</tspan><tspan
         id="tspan236"
         y="19.107447"
         x="24.244469 39.414795 50.835663 55.32819 66.796448 72.198853 83.269035">MY BIKE</tspan></text>
<g
       id="g240"><g
         clip-path="url(#clipPath246)"
         id="g242"><g
           transform="translate(100.5708,217.0029)"
           id="g248"><path
             id="path250"
             style="fill:#2e50a2;fill-opacity:1;fill-rule:nonzero;stroke:none"
             d="m 0,0 c -1.394,0 -2.523,1.13 -2.523,2.523 0,1.394 1.129,2.523 2.523,2.523 1.394,0 2.523,-1.129 2.523,-2.523 C 2.523,1.13 1.394,0 0,0 M 0,8.29 C -3.185,8.29 -5.767,5.708 -5.767,2.523 -5.767,-2.476 0,-6.938 0,-6.938 0,-6.938 5.768,-3 5.768,2.523 5.768,5.708 3.186,8.29 0,8.29" /></g></g></g><text
       id="text254"
       style="font-style:italic;font-variant:normal;font-weight:900;font-stretch:normal;font-size:22.27470016px;font-family:'Roboto Black';-inkscape-font-specification:Roboto-BlackItalic;writing-mode:lr-tb;fill:#4ab6bf;fill-opacity:1;fill-rule:nonzero;stroke:none"
       transform="matrix(1,0,0,-1,367.0098,200.5781)"><tspan
         id="tspan252"
         y="0"
         x="0 14.010786 22.118776 35.668476 48.999886">bikeR</tspan></text>
<g
       id="g256"><g
         clip-path="url(#clipPath262)"
         id="g258"><g
           transform="translate(368.2812,267.7583)"
           id="g264"><path
             id="path266"
             style="fill:#4ab6bf;fill-opacity:1;fill-rule:nonzero;stroke:none"
             d="m 0,0 c -9.731,0 -17.648,-7.917 -17.648,-17.649 0,-9.731 7.917,-17.648 17.648,-17.648 9.732,0 17.649,7.917 17.649,17.648 C 17.649,-7.917 9.732,0 0,0 m 0,-41.329 c -13.057,0 -23.68,10.623 -23.68,23.68 0,13.057 10.623,23.68 23.68,23.68 13.058,0 23.681,-10.623 23.681,-23.68 0,-13.057 -10.623,-23.68 -23.681,-23.68" /></g><g
           transform="translate(431.4668,267.7583)"
           id="g268"><path
             id="path270"
             style="fill:#4ab6bf;fill-opacity:1;fill-rule:nonzero;stroke:none"
             d="m 0,0 c -9.732,0 -17.649,-7.917 -17.649,-17.649 0,-9.731 7.917,-17.648 17.649,-17.648 9.731,0 17.648,7.917 17.648,17.648 C 17.648,-7.917 9.731,0 0,0 m 0,-41.329 c -13.058,0 -23.681,10.623 -23.681,23.68 0,13.057 10.623,23.68 23.681,23.68 13.057,0 23.68,-10.623 23.68,-23.68 0,-13.057 -10.623,-23.68 -23.68,-23.68" /></g><g
           transform="translate(424.8242,277.4482)"
           id="g272"><path
             id="path274"
             style="fill:#30767a;fill-opacity:1;fill-rule:nonzero;stroke:none"
             d="m 0,0 h -21.536 c -1.332,0 -2.412,1.08 -2.412,2.413 0,1.332 1.08,2.412 2.412,2.412 L 0,4.825 c 2.492,0 4.521,2.028 4.521,4.519 0,2.492 -2.029,4.52 -4.521,4.52 h -10.766 c -1.332,0 -2.412,1.08 -2.412,2.412 0,1.333 1.08,2.413 2.412,2.413 H 0 c 5.153,0 9.345,-4.192 9.345,-9.345 C 9.345,4.192 5.153,0 0,0" /></g><g
           transform="translate(397.1514,262.7603)"
           id="g276"><path
             id="path278"
             style="fill:#30767a;fill-opacity:1;fill-rule:nonzero;stroke:none"
             d="m 0,0 c -0.739,0 -1.47,0.339 -1.942,0.979 l -14.619,19.793 h -18.131 c -1.332,0 -2.412,1.081 -2.412,2.413 0,1.333 1.08,2.413 2.412,2.413 h 19.349 c 0.766,0 1.486,-0.364 1.941,-0.98 L 1.938,3.846 C 2.73,2.774 2.503,1.264 1.432,0.472 1,0.154 0.498,0 0,0" /></g></g></g><text
       id="text282"
       style="font-variant:normal;font-weight:500;font-stretch:normal;font-size:6.45160007px;font-family:'Lato Medium';-inkscape-font-specification:Lato-Medium;writing-mode:lr-tb;fill:#30767a;fill-opacity:1;fill-rule:nonzero;stroke:none"
       transform="matrix(1,0,0,-1,380.4521,188.999)"><tspan
         id="tspan280"
         y="0"
         x="0 4.8361192 7.3135338 12.268363 16.636095 18.907059 23.06189 28.646395 34.465736">BIKE SHOP</tspan></text>
<g
       id="g284"><g
         clip-path="url(#clipPath290)"
         id="g286"><g
           transform="translate(95.6533,404.9722)"
           id="g292"><path
             id="path294"
             style="fill:#57565c;fill-opacity:1;fill-rule:nonzero;stroke:none"
             d="m 0,0 -11.723,20.604 h 24.515 z m -13.286,14.279 9.345,-16.424 h -1.251 l -6.371,11.035 -2.589,-4.487 3.78,-6.548 H -22.763 Z M 54.395,-3.267 44.315,14.192 c -0.4,0.694 -1.141,1.122 -1.942,1.122 H 23.661 l -12.818,22.67 c -0.398,0.704 -1.144,1.14 -1.953,1.14 H 1.874 v -4.487 h 5.708 l 5.397,-9.546 h -27.254 l -1.532,2.693 h 3.159 v 4.486 h -11.911 v -4.486 h 3.59 l 5.112,-8.985 -2.011,-3.485 h -18.859 c -0.801,0 -1.542,-0.428 -1.942,-1.122 L -48.75,-3.267 c -0.4,-0.693 -0.4,-1.549 0,-2.243 l 10.081,-17.459 c 0.4,-0.694 1.141,-1.121 1.942,-1.121 h 20.16 c 0.801,0 1.542,0.427 1.942,1.121 l 6.843,11.852 h -5.18 l -4.9,-8.487 h -17.57 l -8.785,15.216 8.785,15.216 h 14.975 L -30.531,-6.631 H 1.164 l 15.57,25.081 13.537,-23.942 3.905,2.208 -7.979,14.112 H 41.078 L 49.863,-4.388 41.078,-19.604 H 23.507 L 14.722,-4.388 19.996,4.746 17.433,9.279 10.19,-3.267 c -0.401,-0.693 -0.401,-1.549 0,-2.243 l 10.08,-17.459 c 0.4,-0.694 1.141,-1.121 1.942,-1.121 h 20.161 c 0.801,0 1.542,0.427 1.942,1.121 l 10.08,17.459 c 0.401,0.694 0.401,1.55 0,2.243" /></g></g></g><text
       id="text300"
       style="font-style:italic;font-variant:normal;font-weight:800;font-stretch:normal;font-size:24.31940079px;font-family:'Raleway ExtraBold';-inkscape-font-specification:Raleway-ExtraBoldItalic;writing-mode:lr-tb;fill:#a3ce4c;fill-opacity:1;fill-rule:nonzero;stroke:none"
       transform="matrix(1,0,0,-1,48.9478,350.2354)"><tspan
         id="tspan296"
         y="0"
         x="0 17.120857 30.812679">GEO</tspan><tspan
         id="tspan298"
         y="0"
         x="50.049324 65.103035 71.620636 85.482689">bike</tspan></text>
<g
       id="g302"><g
         clip-path="url(#clipPath308)"
         id="g304"><g
           transform="translate(96.0449,412.3892)"
           id="g310"><path
             id="path312"
             style="fill:#a3ce4c;fill-opacity:1;fill-rule:nonzero;stroke:none"
             d="M 0,0 5.49,9.509 H -5.49 Z" /></g></g></g><text
       id="text316"
       style="font-variant:normal;font-weight:500;font-stretch:normal;font-size:6.45160007px;font-family:'Lato Medium';-inkscape-font-specification:Lato-Medium;writing-mode:lr-tb;fill:#afafaf;fill-opacity:1;fill-rule:nonzero;stroke:none"
       transform="matrix(1,0,0,-1,72.0542,338.1963)"><tspan
         id="tspan314"
         y="0"
         x="0 4.8322482 7.3096628 12.264492 16.632225 18.903189 22.667696 28.48704 33.428967 38.016052 42.293465 48.112808">BIKE LOCATOR</tspan></text>
<text
       id="text320"
       style="font-variant:normal;font-weight:normal;font-stretch:normal;font-size:32.52700043px;font-family:Milkshake;-inkscape-font-specification:Milkshake;writing-mode:lr-tb;fill:#8dc652;fill-opacity:1;fill-rule:nonzero;stroke:none"
       transform="matrix(1,0,0,-1,204.0366,347.2705)"><tspan
         id="tspan318"
         y="0"
         x="0 11.612139 23.647129">eco</tspan></text>
<text
       id="text324"
       style="font-style:italic;font-variant:normal;font-weight:800;font-stretch:normal;font-size:23.8757px;font-family:'Raleway ExtraBold';-inkscape-font-specification:Raleway-ExtraBoldItalic;writing-mode:lr-tb;fill:#57565c;fill-opacity:1;fill-rule:nonzero;stroke:none"
       transform="matrix(1,0,0,-1,241.3579,347.2705)"><tspan
         id="tspan322"
         y="0"
         x="0 15.781837 22.944548 38.535381">BIKE</tspan></text>
<g
       id="g326"><g
         clip-path="url(#clipPath332)"
         id="g328"><g
           transform="translate(279.9443,376.23)"
           id="g334"><path
             id="path336"
             style="fill:#53a760;fill-opacity:1;fill-rule:nonzero;stroke:none"
             d="m 0,0 c -8.972,0 -16.271,7.299 -16.271,16.271 0,5.381 2.638,10.147 6.677,13.111 l 6.272,-11.509 c -0.236,-0.487 -0.379,-1.026 -0.379,-1.602 0,-2.044 1.657,-3.701 3.701,-3.701 2.044,0 3.7,1.657 3.7,3.701 0,1.886 -1.417,3.426 -3.242,3.654 l -6.277,11.521 c 1.809,0.697 3.766,1.095 5.819,1.095 8.971,0 16.27,-7.299 16.27,-16.27 C 16.27,7.299 8.971,0 0,0 m -29.495,19.986 -12.959,22.348 23.137,-0.35 z M -61.371,0 c -8.971,0 -16.27,7.299 -16.27,16.271 0,8.971 7.299,16.27 16.27,16.27 1.785,0 3.498,-0.3 5.106,-0.833 l -5.446,-11.771 c -1.882,-0.174 -3.36,-1.739 -3.36,-3.666 0,-2.044 1.656,-3.701 3.7,-3.701 0.859,0 1.639,0.305 2.267,0.795 l 13.697,-0.207 C -46.864,5.671 -53.464,0 -61.371,0 m 3.429,17.649 c -0.014,0.034 -0.026,0.069 -0.041,0.102 l 5.587,12.077 c 4.081,-2.71 6.861,-7.211 7.235,-12.372 z m 10.97,23.902 14.08,-24.28 -7.964,0.12 c -0.375,6.913 -4.166,12.917 -9.725,16.36 z M 0,36.841 c -2.798,0 -5.464,-0.566 -7.897,-1.581 l -8.458,15.522 -3.778,-2.058 1.333,-2.446 -26.17,0.396 -3.746,6.46 c -0.385,0.664 -1.094,1.072 -1.861,1.072 h -7.978 v -4.301 h 6.74 l 2.265,-3.907 c -0.138,-0.155 -0.256,-0.331 -0.347,-0.527 l -4.558,-9.851 c -2.165,0.776 -4.487,1.221 -6.916,1.221 -11.343,0 -20.571,-9.228 -20.571,-20.57 0,-11.344 9.228,-20.572 20.571,-20.572 10.26,0 18.764,7.558 20.3,17.393 l 11.636,-0.175 h 0.033 c 0.838,0 1.599,0.485 1.952,1.247 l 12.008,25.952 3.773,-6.924 c -5.371,-3.715 -8.902,-9.911 -8.902,-16.921 0,-11.344 9.228,-20.572 20.571,-20.572 11.343,0 20.57,9.228 20.57,20.572 0,11.342 -9.227,20.57 -20.57,20.57" /></g><g
           transform="translate(270.1641,431.1802)"
           id="g338"><path
             id="path340"
             style="fill:#53a760;fill-opacity:1;fill-rule:nonzero;stroke:none"
             d="m 0,0 c 0,0 -4.765,-0.335 -6.839,-1.707 11.468,-9.068 20.172,5.685 20.172,5.685 0,0 -4.097,-1.991 -11.849,0.488 C -4.371,6.338 -7.805,2.722 -7.966,-0.455 -6.736,0.143 -3.286,1.054 0,0" /></g><g
           transform="translate(259.4824,428.0601)"
           id="g342"><path
             id="path344"
             style="fill:#53a760;fill-opacity:1;fill-rule:nonzero;stroke:none"
             d="m 0,0 c -0.206,0.819 -1.562,4.427 -5.172,5.84 3.267,-0.507 5.705,-2.54 6.27,-5.534 0.367,1.588 1.408,8.315 -6.705,10.191 -9.221,2.13 -13.69,8.665 -13.69,8.665 0,0 -2.205,-18.431 19.297,-19.162" /></g></g></g><text
       id="text348"
       style="font-variant:normal;font-weight:500;font-stretch:normal;font-size:6.45160007px;font-family:'Lato Medium';-inkscape-font-specification:Lato-Medium;writing-mode:lr-tb;fill:#afafaf;fill-opacity:1;fill-rule:nonzero;stroke:none"
       transform="matrix(1,0,0,-1,217.0913,336.6436)"><tspan
         id="tspan346"
         y="0"
         x="0 4.0677338 9.1064339 13.396748 17.764481 19.841896 24.312855 29.893488 34.261223 36.534767 41.083145 45.050877 50.089577 55.670212 60.037945">SAFE THE PLANET</tspan></text>
<text
       id="text354"
       style="font-variant:normal;font-weight:900;font-stretch:normal;font-size:17.16609955px;font-family:'Lato Black';-inkscape-font-specification:Lato-Black;writing-mode:lr-tb;fill:#de3205;fill-opacity:1;fill-rule:nonzero;stroke:none"
       transform="matrix(1,0,0,-1,370.6152,67.6582)"><tspan
         id="tspan350"
         y="0"
         x="0 11.432623 17.732582 25.841846">Fire</tspan><tspan
         id="tspan352"
         y="0"
         x="36.632458 49.702724 56.004402 66.904877">Bike</tspan></text>
<g
       id="g356"><g
         clip-path="url(#clipPath362)"
         id="g358"><g
           transform="translate(440.6221,125.043)"
           id="g364"><path
             id="path366"
             style="fill:#3e3e42;fill-opacity:1;fill-rule:nonzero;stroke:none"
             d="m 0,0 c -8.675,0 -15.732,-7.058 -15.732,-15.732 0,-8.675 7.057,-15.733 15.732,-15.733 8.675,0 15.732,7.058 15.732,15.733 C 15.732,-7.058 8.675,0 0,0 m 0,-36.842 c -11.64,0 -21.109,9.47 -21.109,21.11 0,11.639 9.469,21.109 21.109,21.109 11.64,0 21.109,-9.47 21.109,-21.109 0,-11.64 -9.469,-21.11 -21.109,-21.11" /></g><g
           transform="translate(410.9307,110.2783)"
           id="g368"><path
             id="path370"
             style="fill:#de3205;fill-opacity:1;fill-rule:nonzero;stroke:none"
             d="M 0,0 -4.354,0.066 -13.842,25.128 11.45,24.745 Z M -17.265,22.021 -8.979,0.136 -27.263,0.413 Z M 31.615,-0.007 13.588,36.069 H 25.011 V 40.37 H 10.109 C 9.364,40.37 8.672,39.984 8.28,39.351 7.889,38.717 7.853,37.925 8.186,37.259 l 4.109,-8.225 -27.775,0.42 -2.319,6.125 c -0.316,0.836 -1.117,1.389 -2.011,1.389 h -7.978 v -4.301 h 6.493 l 1.898,-5.012 -13.159,-28.439 c -0.305,-0.661 -0.256,-1.432 0.132,-2.048 0.387,-0.616 1.06,-0.995 1.788,-1.006 L 1.333,-4.322 h 0.032 c 0.837,0 1.6,0.486 1.952,1.247 l 12.031,26.001 12.42,-24.855 z" /></g><g
           transform="translate(377.1016,130.4199)"
           id="g372"><path
             id="path374"
             style="fill:#3e3e42;fill-opacity:1;fill-rule:nonzero;stroke:none"
             d="m 0,0 c -8.986,0 -16.657,-5.654 -19.698,-13.583 h 5.887 c 2.673,4.885 7.861,8.206 13.811,8.206 8.675,0 15.731,-7.058 15.731,-15.732 0,-8.675 -7.056,-15.733 -15.731,-15.733 -5.95,0 -11.138,3.321 -13.811,8.206 h -5.887 c 3.041,-7.928 10.712,-13.583 19.698,-13.583 11.639,0 21.108,9.47 21.108,21.11 C 21.108,-9.47 11.639,0 0,0" /></g><g
           transform="translate(376.2617,112.3779)"
           id="g376"><path
             id="path378"
             style="fill:#ea971e;fill-opacity:1;fill-rule:nonzero;stroke:none"
             d="m 0,0 c -4.894,8.08 -16.216,2.514 -20.379,1.633 -10.593,-2.389 -15.012,3.86 -15.178,6.564 6.781,-9.215 31.768,12.41 35.498,-7.618 C -0.001,0.198 0,0 0,0" /></g><g
           transform="translate(350.9297,104.7227)"
           id="g380"><path
             id="path382"
             style="fill:#ea971e;fill-opacity:1;fill-rule:nonzero;stroke:none"
             d="M 0,0 C 5.913,-5.147 18.491,5.787 25.522,-4.419 14.812,-3.701 17.576,-5.345 10.235,-5.862 4.327,-6.581 -0.019,-2.781 0,0" /></g><g
           transform="translate(342.7559,112.9307)"
           id="g384"><path
             id="path386"
             style="fill:#f6d433;fill-opacity:1;fill-rule:nonzero;stroke:none"
             d="M 0,0 C 4.982,-8.859 18.22,5.923 25.348,-5.748 23.751,-5.2 21.988,-4.2 19.437,-4.381 14.438,-4.741 3.798,-10.603 0.431,-1.683 0.045,-0.672 0,0 0,0" /></g></g></g><text
       id="text390"
       style="font-variant:normal;font-weight:500;font-stretch:normal;font-size:6.45160007px;font-family:'Lato Medium';-inkscape-font-specification:Lato-Medium;writing-mode:lr-tb;fill:#30767a;fill-opacity:1;fill-rule:nonzero;stroke:none"
       transform="matrix(1,0,0,-1,387.0059,58.6846)"><tspan
         id="tspan388"
         y="0"
         x="0 4.7999902 11.264494 16.199968 21.316086 29.028975 34.712833 40.071533">SOFTWARE</tspan></text>
<g
       id="g392"><g
         clip-path="url(#clipPath398)"
         id="g394"><g
           transform="translate(172.2837,17.9365)"
           id="g400"><path
             id="path402"
             style="fill:#c6c5ca;fill-opacity:1;fill-rule:nonzero;stroke:none"
             d="m 0,0 c 0,-0.468 0.073,-0.866 0.218,-1.196 0.146,-0.329 0.345,-0.576 0.598,-0.743 0.254,-0.166 0.53,-0.251 0.83,-0.251 0.304,0 0.581,0.079 0.833,0.238 0.25,0.157 0.451,0.401 0.601,0.727 C 3.229,-0.897 3.304,-0.487 3.304,0 3.304,0.461 3.229,0.856 3.08,1.188 2.93,1.52 2.728,1.772 2.472,1.948 2.217,2.122 1.937,2.209 1.633,2.209 1.317,2.209 1.034,2.119 0.785,1.941 0.536,1.762 0.343,1.505 0.206,1.169 0.068,0.834 0,0.444 0,0 m 3.399,-2.538 v 0.172 C 3.167,-2.632 2.938,-2.849 2.712,-3.015 2.487,-3.183 2.242,-3.309 1.978,-3.395 1.714,-3.483 1.427,-3.524 1.114,-3.524 c -0.414,0 -0.797,0.086 -1.149,0.261 -0.352,0.176 -0.657,0.426 -0.914,0.751 -0.258,0.324 -0.453,0.705 -0.586,1.146 -0.132,0.438 -0.199,0.914 -0.199,1.424 0,1.08 0.263,1.922 0.791,2.526 0.527,0.603 1.222,0.905 2.083,0.905 0.497,0 0.918,-0.086 1.259,-0.257 0.342,-0.169 0.675,-0.434 1,-0.787 v 2.55 c 0,0.356 0.071,0.622 0.213,0.805 0.14,0.18 0.342,0.271 0.604,0.271 0.262,0 0.463,-0.083 0.604,-0.25 C 4.962,5.653 5.033,5.409 5.033,5.084 v -7.622 c 0,-0.329 -0.076,-0.575 -0.228,-0.74 -0.152,-0.164 -0.348,-0.246 -0.589,-0.246 -0.237,0 -0.431,0.084 -0.586,0.254 -0.153,0.172 -0.231,0.416 -0.231,0.732" /></g><g
           transform="translate(179.9233,18.4814)"
           id="g404"><path
             id="path406"
             style="fill:#c6c5ca;fill-opacity:1;fill-rule:nonzero;stroke:none"
             d="M 0,0 H 3.134 C 3.092,0.591 2.932,1.033 2.656,1.326 2.379,1.62 2.016,1.766 1.564,1.766 1.133,1.766 0.78,1.617 0.503,1.321 0.227,1.022 0.06,0.583 0,0 M 3.38,-0.981 H 0 c 0.004,-0.393 0.083,-0.739 0.238,-1.039 0.153,-0.298 0.358,-0.525 0.614,-0.676 0.255,-0.153 0.537,-0.228 0.845,-0.228 0.206,0 0.395,0.024 0.566,0.071 0.172,0.05 0.337,0.125 0.497,0.23 0.161,0.102 0.308,0.213 0.443,0.332 0.135,0.118 0.31,0.279 0.526,0.481 0.088,0.076 0.215,0.115 0.38,0.115 0.177,0 0.32,-0.05 0.43,-0.148 C 4.648,-1.94 4.704,-2.075 4.704,-2.254 4.704,-2.41 4.642,-2.591 4.521,-2.801 4.397,-3.01 4.212,-3.21 3.966,-3.401 3.718,-3.595 3.409,-3.753 3.035,-3.88 2.662,-4.007 2.232,-4.069 1.747,-4.069 c -1.109,0 -1.973,0.316 -2.589,0.949 -0.616,0.632 -0.924,1.491 -0.924,2.575 0,0.512 0.076,0.985 0.228,1.422 0.152,0.437 0.374,0.81 0.664,1.123 0.291,0.313 0.65,0.553 1.077,0.719 0.426,0.167 0.899,0.25 1.418,0.25 0.675,0 1.254,-0.142 1.736,-0.427 C 3.841,2.257 4.204,1.889 4.444,1.438 4.684,0.986 4.805,0.525 4.805,0.059 4.805,-0.378 4.68,-0.659 4.432,-0.788 4.183,-0.917 3.832,-0.981 3.38,-0.981" /></g><g
           transform="translate(191.1777,16.6719)"
           id="g408"><path
             id="path410"
             style="fill:#c6c5ca;fill-opacity:1;fill-rule:nonzero;stroke:none"
             d="M 0,0 C 0,-0.477 -0.116,-0.886 -0.348,-1.225 -0.58,-1.564 -0.923,-1.822 -1.377,-1.998 -1.83,-2.173 -2.382,-2.26 -3.032,-2.26 c -0.62,0 -1.152,0.095 -1.595,0.285 -0.443,0.189 -0.77,0.427 -0.981,0.711 -0.211,0.286 -0.317,0.572 -0.317,0.859 0,0.19 0.067,0.351 0.203,0.487 0.135,0.134 0.306,0.201 0.513,0.201 0.181,0 0.32,-0.044 0.417,-0.133 0.097,-0.088 0.19,-0.212 0.278,-0.372 0.178,-0.309 0.39,-0.537 0.637,-0.691 0.247,-0.15 0.583,-0.228 1.01,-0.228 0.346,0 0.63,0.079 0.851,0.232 0.222,0.155 0.332,0.331 0.332,0.529 0,0.305 -0.114,0.525 -0.345,0.663 -0.23,0.14 -0.609,0.274 -1.136,0.401 -0.595,0.146 -1.079,0.302 -1.453,0.465 -0.373,0.162 -0.672,0.376 -0.895,0.642 -0.224,0.266 -0.336,0.594 -0.336,0.981 0,0.345 0.103,0.673 0.31,0.982 0.207,0.308 0.512,0.554 0.915,0.736 0.403,0.184 0.889,0.277 1.459,0.277 0.447,0 0.85,-0.047 1.206,-0.141 0.356,-0.091 0.655,-0.217 0.893,-0.373 0.238,-0.155 0.42,-0.328 0.544,-0.519 0.124,-0.19 0.186,-0.375 0.186,-0.556 0,-0.199 -0.066,-0.362 -0.199,-0.489 -0.132,-0.125 -0.321,-0.19 -0.567,-0.19 -0.177,0 -0.328,0.051 -0.452,0.153 -0.124,0.101 -0.267,0.253 -0.427,0.455 -0.131,0.169 -0.284,0.304 -0.462,0.406 -0.178,0.101 -0.418,0.151 -0.722,0.151 -0.313,0 -0.571,-0.065 -0.778,-0.199 -0.207,-0.133 -0.311,-0.298 -0.311,-0.496 0,-0.182 0.076,-0.33 0.228,-0.447 C -3.874,2.405 -3.669,2.309 -3.412,2.233 -3.154,2.158 -2.8,2.065 -2.348,1.956 -1.812,1.825 -1.375,1.669 -1.035,1.487 -0.695,1.307 -0.438,1.092 -0.262,0.845 -0.087,0.598 0,0.316 0,0" /></g><g
           transform="translate(193.7979,20.457)"
           id="g412"><path
             id="path414"
             style="fill:#c6c5ca;fill-opacity:1;fill-rule:nonzero;stroke:none"
             d="m 0,0 v -4.994 c 0,-0.347 -0.082,-0.609 -0.247,-0.785 -0.165,-0.178 -0.373,-0.266 -0.627,-0.266 -0.253,0 -0.459,0.09 -0.617,0.272 -0.158,0.181 -0.237,0.441 -0.237,0.779 v 4.943 c 0,0.341 0.079,0.599 0.237,0.773 0.158,0.173 0.364,0.259 0.617,0.259 0.254,0 0.462,-0.086 0.627,-0.259 C -0.082,0.548 0,0.308 0,0 m -0.854,1.785 c -0.241,0 -0.447,0.073 -0.618,0.221 -0.171,0.147 -0.256,0.356 -0.256,0.628 0,0.244 0.087,0.444 0.263,0.603 0.174,0.159 0.379,0.239 0.611,0.239 0.223,0 0.421,-0.072 0.594,-0.216 C -0.087,3.116 0,2.908 0,2.634 0,2.366 -0.084,2.159 -0.253,2.01 -0.422,1.86 -0.623,1.785 -0.854,1.785" /></g><g
           transform="translate(196.3613,17.9814)"
           id="g416"><path
             id="path418"
             style="fill:#c6c5ca;fill-opacity:1;fill-rule:nonzero;stroke:none"
             d="m 0,0 c 0,-0.7 0.152,-1.23 0.458,-1.588 0.306,-0.359 0.702,-0.539 1.188,-0.539 0.286,0 0.557,0.078 0.812,0.231 0.256,0.154 0.464,0.387 0.625,0.697 0.159,0.309 0.24,0.686 0.24,1.13 0,0.704 -0.155,1.254 -0.465,1.645 C 2.547,1.968 2.139,2.164 1.632,2.164 1.139,2.164 0.743,1.978 0.446,1.601 0.148,1.226 0,0.692 0,0 M 5.007,2.19 V -2.829 C 5.007,-3.403 4.945,-3.897 4.823,-4.312 4.701,-4.725 4.505,-5.066 4.234,-5.336 3.964,-5.605 3.611,-5.808 3.174,-5.937 2.738,-6.068 2.194,-6.134 1.544,-6.134 c -0.595,0 -1.127,0.083 -1.595,0.25 -0.468,0.168 -0.829,0.383 -1.083,0.646 -0.253,0.264 -0.38,0.535 -0.38,0.813 0,0.211 0.072,0.384 0.216,0.516 0.143,0.134 0.317,0.2 0.519,0.2 0.253,0 0.474,-0.111 0.665,-0.336 0.092,-0.113 0.188,-0.228 0.287,-0.345 0.099,-0.117 0.21,-0.215 0.329,-0.297 0.121,-0.083 0.266,-0.144 0.434,-0.184 0.169,-0.039 0.363,-0.06 0.583,-0.06 0.447,0 0.794,0.063 1.041,0.188 0.247,0.123 0.42,0.298 0.519,0.521 0.1,0.223 0.157,0.462 0.174,0.719 0.018,0.255 0.03,0.665 0.038,1.232 C 3.025,-2.644 2.719,-2.927 2.37,-3.12 2.022,-3.314 1.607,-3.412 1.126,-3.412 c -0.578,0 -1.083,0.148 -1.516,0.444 -0.432,0.295 -0.765,0.708 -0.997,1.24 -0.232,0.533 -0.347,1.146 -0.347,1.842 0,0.519 0.07,0.989 0.211,1.405 0.142,0.419 0.343,0.77 0.605,1.058 0.261,0.286 0.563,0.503 0.905,0.649 0.342,0.145 0.717,0.218 1.127,0.218 0.489,0 0.913,-0.095 1.272,-0.281 0.359,-0.188 0.692,-0.483 1,-0.884 v 0.235 c 0,0.299 0.073,0.531 0.221,0.696 0.148,0.164 0.339,0.247 0.571,0.247 0.333,0 0.554,-0.109 0.664,-0.326 C 4.952,2.913 5.007,2.6 5.007,2.19" /></g><g
           transform="translate(204.1147,20.4814)"
           id="g420"><path
             id="path422"
             style="fill:#c6c5ca;fill-opacity:1;fill-rule:nonzero;stroke:none"
             d="m 0,0 v -0.208 c 0.303,0.401 0.636,0.695 0.997,0.883 0.36,0.187 0.775,0.282 1.244,0.282 0.455,0 0.863,-0.101 1.221,-0.298 C 3.821,0.46 4.089,0.18 4.266,-0.182 4.38,-0.395 4.454,-0.622 4.488,-0.866 4.521,-1.111 4.539,-1.424 4.539,-1.804 v -3.215 c 0,-0.346 -0.08,-0.608 -0.238,-0.785 -0.158,-0.177 -0.363,-0.265 -0.617,-0.265 -0.258,0 -0.466,0.09 -0.627,0.271 -0.161,0.182 -0.24,0.442 -0.24,0.779 v 2.88 c 0,0.57 -0.08,1.005 -0.238,1.308 -0.158,0.301 -0.473,0.452 -0.946,0.452 -0.308,0 -0.589,-0.092 -0.842,-0.275 C 0.538,-0.838 0.352,-1.091 0.234,-1.411 0.15,-1.669 0.107,-2.148 0.107,-2.854 v -2.165 c 0,-0.35 -0.081,-0.613 -0.243,-0.789 -0.162,-0.174 -0.372,-0.261 -0.63,-0.261 -0.249,0 -0.453,0.09 -0.614,0.271 -0.16,0.182 -0.241,0.442 -0.241,0.779 v 4.995 c 0,0.329 0.072,0.575 0.215,0.738 0.144,0.161 0.34,0.243 0.589,0.243 0.152,0 0.29,-0.036 0.412,-0.108 C -0.283,0.776 -0.185,0.67 -0.111,0.526 -0.037,0.383 0,0.207 0,0" /></g><g
           transform="translate(211.248,18.4814)"
           id="g424"><path
             id="path426"
             style="fill:#c6c5ca;fill-opacity:1;fill-rule:nonzero;stroke:none"
             d="M 0,0 H 3.133 C 3.091,0.591 2.932,1.033 2.655,1.326 2.379,1.62 2.015,1.766 1.563,1.766 1.133,1.766 0.779,1.617 0.503,1.321 0.226,1.022 0.059,0.583 0,0 M 3.38,-0.981 H 0 c 0.004,-0.393 0.083,-0.739 0.238,-1.039 0.154,-0.298 0.358,-0.525 0.614,-0.676 0.254,-0.153 0.536,-0.228 0.844,-0.228 0.207,0 0.396,0.024 0.567,0.071 0.171,0.05 0.336,0.125 0.497,0.23 0.16,0.102 0.307,0.213 0.444,0.332 0.134,0.118 0.309,0.279 0.525,0.481 0.088,0.076 0.214,0.115 0.379,0.115 0.178,0 0.321,-0.05 0.431,-0.148 C 4.648,-1.94 4.703,-2.075 4.703,-2.254 4.703,-2.41 4.642,-2.591 4.52,-2.801 4.397,-3.01 4.212,-3.21 3.965,-3.401 3.718,-3.595 3.409,-3.753 3.035,-3.88 2.662,-4.007 2.232,-4.069 1.747,-4.069 c -1.11,0 -1.973,0.316 -2.589,0.949 -0.616,0.632 -0.925,1.491 -0.925,2.575 0,0.512 0.077,0.985 0.228,1.422 0.152,0.437 0.374,0.81 0.665,1.123 0.291,0.313 0.65,0.553 1.077,0.719 0.425,0.167 0.899,0.25 1.418,0.25 0.674,0 1.253,-0.142 1.736,-0.427 C 3.841,2.257 4.203,1.889 4.444,1.438 4.684,0.986 4.805,0.525 4.805,0.059 4.805,-0.378 4.68,-0.659 4.431,-0.788 4.183,-0.917 3.832,-0.981 3.38,-0.981" /></g><g
           transform="translate(218.2734,17.9365)"
           id="g428"><path
             id="path430"
             style="fill:#c6c5ca;fill-opacity:1;fill-rule:nonzero;stroke:none"
             d="M 0,0 C 0,-0.468 0.072,-0.866 0.218,-1.196 0.364,-1.525 0.563,-1.772 0.817,-1.939 1.07,-2.105 1.346,-2.19 1.646,-2.19 c 0.304,0 0.582,0.079 0.832,0.238 0.251,0.157 0.452,0.401 0.602,0.727 C 3.229,-0.897 3.304,-0.487 3.304,0 3.304,0.461 3.229,0.856 3.08,1.188 2.93,1.52 2.728,1.772 2.472,1.948 2.216,2.122 1.937,2.209 1.633,2.209 1.317,2.209 1.034,2.119 0.785,1.941 0.536,1.762 0.343,1.505 0.206,1.169 0.068,0.834 0,0.444 0,0 m 3.399,-2.538 v 0.172 C 3.167,-2.632 2.938,-2.849 2.712,-3.015 2.486,-3.183 2.242,-3.309 1.978,-3.395 1.715,-3.483 1.427,-3.524 1.115,-3.524 c -0.415,0 -0.798,0.086 -1.15,0.261 -0.352,0.176 -0.657,0.426 -0.914,0.751 -0.258,0.324 -0.453,0.705 -0.586,1.146 -0.133,0.438 -0.199,0.914 -0.199,1.424 0,1.08 0.263,1.922 0.791,2.526 0.527,0.603 1.222,0.905 2.083,0.905 0.498,0 0.918,-0.086 1.259,-0.257 0.342,-0.169 0.676,-0.434 1,-0.787 v 2.55 c 0,0.356 0.071,0.622 0.212,0.805 0.141,0.18 0.344,0.271 0.605,0.271 0.262,0 0.463,-0.083 0.604,-0.25 C 4.962,5.653 5.033,5.409 5.033,5.084 v -7.622 c 0,-0.329 -0.076,-0.575 -0.228,-0.74 C 4.653,-3.442 4.457,-3.524 4.216,-3.524 3.98,-3.524 3.785,-3.44 3.63,-3.27 3.476,-3.098 3.399,-2.854 3.399,-2.538" /></g><g
           transform="translate(228.8184,17.8857)"
           id="g432"><path
             id="path434"
             style="fill:#c6c5ca;fill-opacity:1;fill-rule:nonzero;stroke:none"
             d="m 0,0 c 0,-0.687 0.157,-1.216 0.471,-1.584 0.315,-0.369 0.727,-0.556 1.238,-0.556 0.435,0 0.809,0.189 1.124,0.568 0.313,0.378 0.471,0.919 0.471,1.623 C 3.304,0.507 3.239,0.9 3.108,1.229 2.977,1.559 2.792,1.812 2.551,1.992 2.311,2.17 2.029,2.26 1.709,2.26 1.38,2.26 1.086,2.17 0.829,1.992 0.572,1.812 0.369,1.554 0.221,1.214 0.074,0.874 0,0.469 0,0 M -0.083,5.135 V 2.496 C 0.242,2.833 0.574,3.092 0.911,3.271 1.249,3.45 1.667,3.54 2.165,3.54 2.739,3.54 3.242,3.403 3.675,3.133 4.106,2.859 4.442,2.465 4.681,1.948 4.919,1.431 5.039,0.818 5.039,0.108 5.039,-0.415 4.972,-0.894 4.839,-1.331 4.707,-1.769 4.513,-2.147 4.26,-2.468 4.007,-2.788 3.7,-3.036 3.339,-3.212 2.978,-3.387 2.581,-3.474 2.146,-3.474 c -0.266,0 -0.517,0.032 -0.75,0.095 -0.235,0.063 -0.434,0.146 -0.599,0.25 -0.164,0.103 -0.304,0.21 -0.421,0.319 -0.116,0.11 -0.269,0.275 -0.459,0.495 v -0.172 c 0,-0.325 -0.078,-0.571 -0.234,-0.739 -0.156,-0.166 -0.354,-0.248 -0.595,-0.248 -0.244,0 -0.44,0.082 -0.585,0.248 -0.146,0.168 -0.218,0.414 -0.218,0.739 v 7.546 c 0,0.35 0.07,0.616 0.211,0.794 0.142,0.179 0.339,0.269 0.592,0.269 0.266,0 0.471,-0.086 0.614,-0.256 0.144,-0.172 0.215,-0.414 0.215,-0.731" /></g><g
           transform="translate(236.0977,14.1963)"
           id="g436"><path
             id="path438"
             style="fill:#c6c5ca;fill-opacity:1;fill-rule:nonzero;stroke:none"
             d="m 0,0 0.158,0.386 -2.127,5.355 c -0.13,0.308 -0.197,0.532 -0.197,0.672 0,0.148 0.039,0.284 0.115,0.41 0.076,0.127 0.18,0.229 0.313,0.305 0.133,0.076 0.271,0.114 0.415,0.114 0.248,0 0.436,-0.079 0.563,-0.238 0.127,-0.157 0.239,-0.384 0.336,-0.68 L 1.038,2.07 2.424,6.026 C 2.534,6.347 2.633,6.598 2.722,6.78 2.811,6.961 2.904,7.083 3.003,7.146 3.102,7.21 3.243,7.242 3.424,7.242 3.556,7.242 3.681,7.207 3.801,7.137 3.921,7.067 4.014,6.974 4.08,6.855 4.145,6.737 4.178,6.613 4.178,6.482 4.161,6.402 4.134,6.288 4.095,6.14 4.057,5.992 4.011,5.842 3.957,5.69 L 1.703,-0.209 C 1.508,-0.729 1.318,-1.134 1.133,-1.43 0.947,-1.726 0.702,-1.953 0.396,-2.11 0.089,-2.27 -0.323,-2.349 -0.842,-2.349 c -0.506,0 -0.887,0.055 -1.139,0.164 -0.254,0.111 -0.38,0.311 -0.38,0.603 0,0.198 0.06,0.352 0.181,0.458 0.119,0.108 0.298,0.163 0.534,0.163 0.093,0 0.184,-0.013 0.272,-0.039 0.11,-0.024 0.205,-0.038 0.285,-0.038 0.198,0 0.355,0.028 0.469,0.089 0.113,0.058 0.215,0.161 0.307,0.306 0.09,0.145 0.195,0.36 0.313,0.643" /></g><g
           transform="translate(261.1318,21.2891)"
           id="g440"><path
             id="path442"
             style="fill:#c6c5ca;fill-opacity:1;fill-rule:nonzero;stroke:none"
             d="m 0,0 h 0.413 v 0.518 c 0,0.543 0.066,0.971 0.204,1.292 0.136,0.318 0.37,0.549 0.697,0.696 C 1.642,2.65 2.09,2.723 2.658,2.723 3.671,2.723 4.174,2.479 4.174,1.98 4.174,1.822 4.12,1.685 4.014,1.571 3.91,1.458 3.784,1.4 3.641,1.4 3.574,1.4 3.456,1.412 3.29,1.439 3.132,1.462 2.989,1.478 2.874,1.478 2.563,1.478 2.364,1.384 2.271,1.2 2.188,1.017 2.142,0.755 2.142,0.411 V 0 H 2.563 C 3.224,0 3.55,-0.198 3.55,-0.598 3.55,-0.876 3.465,-1.058 3.288,-1.134 3.114,-1.21 2.873,-1.247 2.563,-1.247 H 2.142 v -4.579 c 0,-0.342 -0.081,-0.601 -0.246,-0.779 -0.162,-0.182 -0.371,-0.271 -0.629,-0.271 -0.245,0 -0.447,0.089 -0.612,0.271 -0.163,0.178 -0.242,0.437 -0.242,0.779 v 4.579 h -0.476 c -0.259,0 -0.455,0.056 -0.595,0.174 -0.14,0.113 -0.21,0.265 -0.21,0.452 C -0.868,-0.206 -0.579,0 0,0" /></g><g
           transform="translate(266.79,16.9072)"
           id="g444"><path
             id="path446"
             style="fill:#c6c5ca;fill-opacity:1;fill-rule:nonzero;stroke:none"
             d="m 0,0 v -1.444 c 0,-0.35 -0.088,-0.614 -0.249,-0.787 -0.164,-0.177 -0.373,-0.263 -0.625,-0.263 -0.254,0 -0.458,0.087 -0.617,0.266 -0.157,0.176 -0.241,0.438 -0.241,0.784 v 4.813 c 0,0.777 0.28,1.165 0.84,1.165 0.289,0 0.496,-0.09 0.623,-0.272 0.126,-0.182 0.197,-0.449 0.21,-0.805 0.206,0.356 0.417,0.623 0.633,0.805 0.222,0.182 0.508,0.272 0.872,0.272 0.366,0 0.715,-0.09 1.058,-0.272 C 2.848,4.08 3.018,3.838 3.018,3.539 3.018,3.33 2.943,3.152 2.801,3.019 2.653,2.88 2.497,2.811 2.329,2.811 2.263,2.811 2.109,2.853 1.868,2.931 1.625,3.006 1.409,3.046 1.227,3.046 0.973,3.046 0.765,2.978 0.605,2.847 0.444,2.71 0.318,2.517 0.229,2.256 0.144,1.993 0.084,1.68 0.047,1.32 0.015,0.959 0,0.519 0,0" /></g><g
           transform="translate(271.3525,18.4854)"
           id="g448"><path
             id="path450"
             style="fill:#c6c5ca;fill-opacity:1;fill-rule:nonzero;stroke:none"
             d="M 0,0 H 3.134 C 3.092,0.589 2.936,1.032 2.658,1.323 2.38,1.617 2.02,1.764 1.565,1.764 1.134,1.764 0.78,1.616 0.504,1.317 0.229,1.021 0.059,0.581 0,0 M 3.382,-0.983 H 0 C 0.007,-1.375 0.084,-1.724 0.237,-2.021 0.394,-2.32 0.597,-2.547 0.854,-2.7 1.109,-2.852 1.39,-2.927 1.699,-2.927 c 0.207,0 0.395,0.023 0.567,0.074 0.169,0.047 0.336,0.124 0.496,0.228 0.161,0.102 0.306,0.213 0.442,0.334 0.135,0.115 0.311,0.277 0.527,0.479 0.09,0.075 0.216,0.116 0.379,0.116 0.178,0 0.32,-0.05 0.432,-0.149 0.11,-0.097 0.163,-0.233 0.163,-0.411 0,-0.156 -0.06,-0.339 -0.179,-0.546 C 4.401,-3.014 4.218,-3.213 3.97,-3.405 3.72,-3.596 3.409,-3.757 3.037,-3.882 2.665,-4.009 2.234,-4.072 1.75,-4.072 c -1.113,0 -1.975,0.315 -2.591,0.948 -0.615,0.634 -0.927,1.494 -0.927,2.577 0,0.512 0.079,0.985 0.233,1.423 0.149,0.438 0.371,0.811 0.665,1.124 0.29,0.314 0.646,0.552 1.075,0.719 0.424,0.167 0.897,0.25 1.417,0.25 0.675,0 1.254,-0.144 1.738,-0.431 C 3.842,2.257 4.209,1.887 4.445,1.436 4.687,0.982 4.807,0.524 4.807,0.053 4.807,-0.379 4.682,-0.66 4.433,-0.79 4.185,-0.919 3.834,-0.983 3.382,-0.983" /></g><g
           transform="translate(278.5439,18.4854)"
           id="g452"><path
             id="path454"
             style="fill:#c6c5ca;fill-opacity:1;fill-rule:nonzero;stroke:none"
             d="M 0,0 H 3.133 C 3.09,0.589 2.93,1.032 2.656,1.323 2.375,1.617 2.015,1.764 1.562,1.764 1.131,1.764 0.778,1.616 0.5,1.317 0.225,1.021 0.056,0.581 0,0 M 3.38,-0.983 H 0 C 0.004,-1.375 0.083,-1.724 0.235,-2.021 0.391,-2.32 0.595,-2.547 0.85,-2.7 c 0.254,-0.152 0.536,-0.227 0.847,-0.227 0.204,0 0.395,0.023 0.563,0.074 0.173,0.047 0.337,0.124 0.5,0.228 0.161,0.102 0.306,0.213 0.442,0.334 0.133,0.115 0.31,0.277 0.526,0.479 0.089,0.075 0.217,0.116 0.378,0.116 0.179,0 0.322,-0.05 0.434,-0.149 C 4.649,-1.942 4.7,-2.078 4.7,-2.256 4.7,-2.412 4.642,-2.595 4.518,-2.802 4.399,-3.014 4.215,-3.213 3.965,-3.405 3.718,-3.596 3.405,-3.757 3.034,-3.882 2.663,-4.009 2.229,-4.072 1.745,-4.072 c -1.111,0 -1.972,0.315 -2.59,0.948 -0.616,0.634 -0.926,1.494 -0.926,2.577 0,0.512 0.078,0.985 0.232,1.423 0.151,0.438 0.372,0.811 0.664,1.124 0.29,0.314 0.648,0.552 1.075,0.719 0.426,0.167 0.901,0.25 1.419,0.25 0.673,0 1.252,-0.144 1.741,-0.431 C 3.841,2.257 4.204,1.887 4.441,1.436 4.681,0.982 4.805,0.524 4.805,0.053 4.805,-0.379 4.677,-0.66 4.431,-0.79 4.181,-0.919 3.831,-0.983 3.38,-0.983" /></g><g
           transform="translate(289.0977,17.958)"
           id="g456"><path
             id="path458"
             style="fill:#c6c5ca;fill-opacity:1;fill-rule:nonzero;stroke:none"
             d="m 0,0 c 0,0.457 -0.07,0.849 -0.209,1.175 -0.14,0.328 -0.332,0.578 -0.577,0.752 -0.245,0.175 -0.522,0.263 -0.821,0.263 -0.477,0 -0.879,-0.188 -1.206,-0.562 -0.328,-0.377 -0.493,-0.929 -0.493,-1.661 0,-0.685 0.162,-1.222 0.491,-1.604 0.324,-0.383 0.723,-0.572 1.208,-0.572 0.285,0 0.553,0.084 0.797,0.248 0.248,0.168 0.443,0.418 0.589,0.751 C -0.074,-0.875 0,-0.472 0,0 M -3.388,2.511 V 2.304 c 0.324,0.401 0.662,0.695 1.017,0.883 0.345,0.189 0.744,0.285 1.186,0.285 0.531,0 1.024,-0.14 1.471,-0.411 0.448,-0.277 0.8,-0.678 1.06,-1.205 0.259,-0.53 0.39,-1.153 0.39,-1.876 0,-0.53 -0.075,-1.02 -0.223,-1.466 -0.15,-0.446 -0.359,-0.819 -0.619,-1.12 -0.262,-0.299 -0.571,-0.534 -0.926,-0.697 -0.363,-0.161 -0.741,-0.242 -1.153,-0.242 -0.492,0 -0.908,0.099 -1.243,0.298 -0.334,0.194 -0.654,0.488 -0.96,0.87 v -2.595 c 0,-0.756 -0.277,-1.138 -0.83,-1.138 -0.326,0 -0.538,0.097 -0.646,0.293 -0.102,0.199 -0.157,0.481 -0.157,0.86 v 7.46 c 0,0.329 0.072,0.573 0.214,0.738 0.143,0.158 0.341,0.242 0.589,0.242 0.246,0 0.445,-0.084 0.598,-0.249 0.156,-0.169 0.232,-0.407 0.232,-0.723" /></g><g
           transform="translate(293.4297,20.4609)"
           id="g460"><path
             id="path462"
             style="fill:#c6c5ca;fill-opacity:1;fill-rule:nonzero;stroke:none"
             d="m 0,0 v -5 c 0,-0.344 -0.082,-0.605 -0.246,-0.781 -0.166,-0.18 -0.373,-0.267 -0.627,-0.267 -0.254,0 -0.457,0.089 -0.618,0.271 -0.156,0.183 -0.238,0.443 -0.238,0.777 v 4.95 c 0,0.34 0.082,0.597 0.238,0.77 0.161,0.176 0.364,0.26 0.618,0.26 0.254,0 0.461,-0.084 0.627,-0.26 C -0.082,0.547 0,0.305 0,0 m -0.855,1.784 c -0.242,0 -0.447,0.077 -0.616,0.225 -0.173,0.148 -0.258,0.353 -0.258,0.623 0,0.246 0.087,0.446 0.265,0.606 0.174,0.157 0.377,0.238 0.609,0.238 0.226,0 0.423,-0.071 0.595,-0.212 C -0.087,3.117 0,2.906 0,2.632 0,2.366 -0.084,2.158 -0.251,2.009 -0.42,1.861 -0.621,1.784 -0.855,1.784" /></g><g
           transform="translate(299.001,15.2021)"
           id="g464"><path
             id="path466"
             style="fill:#c6c5ca;fill-opacity:1;fill-rule:nonzero;stroke:none"
             d="M 0,0 -1.521,2.51 -2.46,1.624 V 0.247 c 0,-0.332 -0.089,-0.587 -0.265,-0.766 -0.171,-0.181 -0.377,-0.27 -0.603,-0.27 -0.266,0 -0.477,0.087 -0.628,0.267 -0.15,0.175 -0.229,0.437 -0.229,0.783 v 7.372 c 0,0.383 0.077,0.675 0.221,0.876 0.149,0.203 0.363,0.301 0.636,0.301 0.265,0 0.474,-0.091 0.633,-0.274 C -2.539,8.355 -2.46,8.087 -2.46,7.734 V 3.541 l 1.943,2.041 C -0.275,5.833 -0.095,6.009 0.034,6.101 0.16,6.193 0.313,6.239 0.493,6.239 0.711,6.239 0.89,6.17 1.038,6.033 1.179,5.896 1.251,5.724 1.251,5.518 1.251,5.266 1.016,4.926 0.548,4.504 L -0.369,3.663 1.402,0.875 C 1.531,0.666 1.629,0.513 1.685,0.404 1.74,0.298 1.771,0.191 1.771,0.097 1.771,-0.179 1.695,-0.394 1.544,-0.554 1.395,-0.711 1.195,-0.789 0.954,-0.789 0.743,-0.789 0.578,-0.735 0.465,-0.618 0.352,-0.504 0.194,-0.297 0,0" /></g><g
           transform="translate(302.7578,14.4131)"
           id="g468"><path
             id="path470"
             style="fill:#c6c5ca;fill-opacity:1;fill-rule:nonzero;stroke:none"
             d="m 0,0 c -0.262,0 -0.485,0.083 -0.676,0.254 -0.189,0.165 -0.286,0.403 -0.286,0.71 0,0.256 0.093,0.478 0.274,0.662 0.183,0.186 0.405,0.28 0.671,0.28 0.266,0 0.491,-0.094 0.682,-0.275 C 0.852,1.447 0.946,1.223 0.946,0.964 0.946,0.661 0.852,0.425 0.665,0.257 0.474,0.083 0.253,0 0,0" /></g><g
           transform="translate(311.3545,16.5518)"
           id="g472"><path
             id="path474"
             style="fill:#c6c5ca;fill-opacity:1;fill-rule:nonzero;stroke:none"
             d="M 0,0 C 0,-0.213 -0.065,-0.445 -0.194,-0.688 -0.321,-0.936 -0.52,-1.167 -0.785,-1.389 -1.048,-1.61 -1.379,-1.79 -1.781,-1.924 -2.182,-2.06 -2.635,-2.128 -3.135,-2.128 c -1.069,0 -1.904,0.313 -2.504,0.934 -0.596,0.623 -0.897,1.459 -0.897,2.505 0,0.712 0.137,1.336 0.413,1.882 0.271,0.543 0.669,0.965 1.186,1.263 0.52,0.298 1.145,0.446 1.864,0.446 0.449,0 0.857,-0.065 1.233,-0.196 0.374,-0.131 0.69,-0.301 0.951,-0.507 0.257,-0.209 0.456,-0.428 0.592,-0.661 0.138,-0.234 0.206,-0.453 0.206,-0.657 0,-0.206 -0.076,-0.382 -0.229,-0.525 -0.157,-0.143 -0.344,-0.215 -0.559,-0.215 -0.145,0 -0.266,0.037 -0.36,0.11 -0.097,0.074 -0.203,0.192 -0.32,0.36 -0.212,0.32 -0.43,0.562 -0.663,0.72 -0.229,0.161 -0.521,0.241 -0.877,0.241 -0.506,0 -0.921,-0.198 -1.234,-0.597 -0.312,-0.398 -0.469,-0.947 -0.469,-1.637 0,-0.325 0.041,-0.626 0.122,-0.898 0.078,-0.271 0.195,-0.503 0.347,-0.695 0.153,-0.191 0.335,-0.337 0.55,-0.436 0.217,-0.103 0.455,-0.151 0.71,-0.151 0.347,0 0.644,0.08 0.89,0.24 0.251,0.161 0.468,0.406 0.658,0.735 0.105,0.194 0.218,0.345 0.339,0.456 0.122,0.109 0.272,0.166 0.451,0.166 0.211,0 0.386,-0.082 0.523,-0.242 C -0.071,0.353 0,0.181 0,0" /></g><g
           transform="translate(317.0771,17.9248)"
           id="g476"><path
             id="path478"
             style="fill:#c6c5ca;fill-opacity:1;fill-rule:nonzero;stroke:none"
             d="m 0,0 c 0,0.706 -0.156,1.254 -0.465,1.646 -0.308,0.397 -0.726,0.592 -1.25,0.592 -0.339,0 -0.637,-0.089 -0.894,-0.262 C -2.867,1.801 -3.063,1.543 -3.203,1.199 -3.342,0.857 -3.412,0.457 -3.412,0 c 0,-0.451 0.067,-0.845 0.205,-1.182 0.14,-0.339 0.335,-0.597 0.592,-0.777 0.256,-0.177 0.555,-0.27 0.9,-0.27 0.524,0 0.942,0.199 1.25,0.596 C -0.156,-1.24 0,-0.693 0,0 m 1.734,0 c 0,-0.513 -0.08,-0.989 -0.236,-1.425 -0.164,-0.434 -0.394,-0.808 -0.699,-1.118 -0.304,-0.312 -0.668,-0.552 -1.088,-0.72 -0.426,-0.166 -0.899,-0.25 -1.426,-0.25 -0.523,0 -0.994,0.084 -1.414,0.255 -0.415,0.165 -0.779,0.409 -1.083,0.722 -0.307,0.317 -0.538,0.688 -0.701,1.116 -0.152,0.43 -0.233,0.903 -0.233,1.42 0,0.525 0.082,1.004 0.238,1.438 0.162,0.437 0.393,0.809 0.692,1.117 0.301,0.306 0.663,0.544 1.087,0.713 0.43,0.165 0.9,0.249 1.414,0.249 0.524,0 0.998,-0.084 1.426,-0.254 C 0.137,3.095 0.499,2.853 0.807,2.543 1.111,2.227 1.342,1.856 1.499,1.429 1.655,0.995 1.734,0.522 1.734,0" /></g><g
           transform="translate(325.4053,17.7988)"
           id="g480"><path
             id="path482"
             style="fill:#c6c5ca;fill-opacity:1;fill-rule:nonzero;stroke:none"
             d="m 0,0 v -2.297 c 0,-0.365 -0.081,-0.635 -0.246,-0.818 -0.167,-0.182 -0.382,-0.272 -0.652,-0.272 -0.262,0 -0.476,0.09 -0.634,0.272 -0.164,0.183 -0.247,0.453 -0.247,0.818 v 2.753 c 0,0.436 -0.015,0.774 -0.043,1.017 -0.031,0.235 -0.113,0.435 -0.241,0.588 -0.132,0.156 -0.34,0.234 -0.622,0.234 -0.566,0 -0.937,-0.193 -1.116,-0.587 C -3.979,1.324 -4.072,0.766 -4.072,0.036 v -2.333 c 0,-0.358 -0.082,-0.631 -0.24,-0.815 -0.167,-0.183 -0.379,-0.275 -0.644,-0.275 -0.264,0 -0.478,0.092 -0.645,0.275 -0.168,0.184 -0.251,0.457 -0.251,0.815 v 4.944 c 0,0.327 0.075,0.574 0.224,0.742 0.152,0.17 0.351,0.254 0.593,0.254 0.238,0 0.434,-0.082 0.595,-0.238 0.157,-0.159 0.235,-0.377 0.235,-0.656 V 2.587 c 0.303,0.356 0.624,0.621 0.964,0.786 0.344,0.173 0.72,0.258 1.141,0.258 0.434,0 0.807,-0.088 1.119,-0.261 0.312,-0.173 0.568,-0.435 0.772,-0.783 0.293,0.351 0.605,0.614 0.94,0.786 0.333,0.172 0.702,0.258 1.108,0.258 0.47,0 0.88,-0.096 1.223,-0.28 C 3.401,3.166 3.656,2.897 3.825,2.554 3.973,2.239 4.046,1.748 4.046,1.077 v -3.374 c 0,-0.365 -0.081,-0.635 -0.245,-0.818 -0.164,-0.182 -0.383,-0.272 -0.653,-0.272 -0.262,0 -0.476,0.092 -0.642,0.275 -0.167,0.184 -0.252,0.457 -0.252,0.815 V 0.609 C 2.254,0.981 2.238,1.278 2.209,1.501 2.178,1.727 2.09,1.915 1.953,2.066 1.812,2.217 1.6,2.295 1.318,2.295 1.091,2.295 0.874,2.224 0.669,2.09 0.465,1.958 0.305,1.771 0.188,1.548 0.064,1.256 0,0.739 0,0" /></g><g
           transform="translate(244.9585,18.3447)"
           id="g484"><path
             id="path486"
             style="fill:#c6c5ca;fill-opacity:1;fill-rule:nonzero;stroke:none"
             d="M 0,0 C -0.001,0.002 -0.001,0.006 -0.001,0.012 -0.001,0.006 -0.001,0.002 0,0" /></g><g
           transform="translate(245.0454,17.791)"
           id="g488"><path
             id="path490"
             style="fill:#c6c5ca;fill-opacity:1;fill-rule:nonzero;stroke:none"
             d="M 0,0 H 0.001 C -0.031,0.157 -0.057,0.313 -0.077,0.469 -0.057,0.312 -0.031,0.156 0,0" /></g><g
           transform="translate(245.6177,16.1875)"
           id="g492"><path
             id="path494"
             style="fill:#c6c5ca;fill-opacity:1;fill-rule:nonzero;stroke:none"
             d="M 0,0 C -0.004,0.007 -0.007,0.015 -0.011,0.022 -0.007,0.015 -0.004,0.007 0,0" /></g><g
           transform="translate(245.563,16.2939)"
           id="g496"><path
             id="path498"
             style="fill:#c6c5ca;fill-opacity:1;fill-rule:nonzero;stroke:none"
             d="M 0,0 C -0.015,0.03 -0.029,0.061 -0.043,0.09 -0.029,0.059 -0.015,0.03 0,0" /></g><g
           transform="translate(245.2065,17.1738)"
           id="g500"><path
             id="path502"
             style="fill:#c6c5ca;fill-opacity:1;fill-rule:nonzero;stroke:none"
             d="M 0,0 C 0.084,-0.267 0.186,-0.525 0.304,-0.771 0.184,-0.521 0.084,-0.262 0.002,0 Z" /></g><g
           transform="translate(251.6475,24.9658)"
           id="g504"><path
             id="path506"
             style="fill:#c6c5ca;fill-opacity:1;fill-rule:nonzero;stroke:none"
             d="m 0,0 c 0.335,0 0.581,-0.025 0.863,-0.074 l 0.081,0.51 c 0,0 -0.781,0.239 -1.807,0.156 l -0.08,0.275 c 0.319,0.068 0.558,0.352 0.558,0.691 0,0.387 -0.316,0.701 -0.704,0.701 -0.389,0 -0.704,-0.314 -0.704,-0.701 0,-0.339 0.239,-0.623 0.557,-0.691 l 0.09,-0.308 c -1.09,-0.15 -1.957,-0.575 -1.957,-0.575 l 0.154,-0.469 c 0.658,0.218 1.23,0.352 1.748,0.409 C -0.693,-0.023 -0.311,0 0,0" /></g><g
           transform="translate(245.6045,22.3955)"
           id="g508"><path
             id="path510"
             style="fill:#c6c5ca;fill-opacity:1;fill-rule:nonzero;stroke:none"
             d="M 0,0 0.004,0.005 C 0.03,0.037 0.055,0.068 0.08,0.1 l -0.209,0.15 -0.325,0.238 c -0.019,-0.026 -0.53,-0.496 -0.934,-1.366 -0.017,0.027 -0.037,0.055 -0.06,0.08 -0.121,0.133 -0.29,0.2 -0.506,0.196 h -0.009 c -0.133,0 -0.225,0.044 -0.285,0.098 0.06,0.075 0.096,0.171 0.096,0.275 0,0.246 -0.2,0.446 -0.447,0.446 -0.245,0 -0.445,-0.2 -0.445,-0.446 0,-0.247 0.2,-0.446 0.445,-0.446 0.039,0 0.076,0.007 0.112,0.015 0.11,-0.122 0.283,-0.228 0.538,-0.223 0.131,0.001 0.227,-0.032 0.292,-0.104 0.074,-0.08 0.098,-0.197 0.106,-0.285 0,-10e-4 0,-0.002 -0.002,-0.002 -0.29,-0.793 -0.207,-1.78 -0.207,-1.78 l 0.704,-0.029 c 0.015,0.359 0.066,0.988 0.248,1.487 C -0.457,-0.63 -0.018,-0.026 0,0" /></g><g
           transform="translate(257.7783,24.3779)"
           id="g512"><path
             id="path514"
             style="fill:#c6c5ca;fill-opacity:1;fill-rule:nonzero;stroke:none"
             d="m 0,0 c -0.244,0 -0.444,-0.199 -0.444,-0.446 0,-0.038 0.005,-0.075 0.015,-0.11 -0.123,-0.111 -0.229,-0.285 -0.225,-0.54 0.003,-0.132 -0.032,-0.226 -0.103,-0.292 -0.056,-0.049 -0.128,-0.077 -0.197,-0.093 -0.525,0.735 -1.17,1.183 -1.17,1.183 L -2.63,-0.84 c 0.383,-0.347 0.773,-0.783 1.151,-1.326 0.264,-0.376 0.533,-0.86 0.758,-1.344 l 0.683,0.324 c 0,0 -0.312,0.771 -0.75,1.461 0.075,0.028 0.152,0.069 0.22,0.129 0.133,0.119 0.199,0.29 0.195,0.505 -0.001,0.138 0.044,0.232 0.099,0.294 0.077,-0.058 0.171,-0.095 0.274,-0.095 0.248,0 0.447,0.2 0.447,0.446 C 0.447,-0.199 0.248,0 0,0" /></g><g
           transform="translate(256.0088,18.2441)"
           id="g516"><path
             id="path518"
             style="fill:#c6c5ca;fill-opacity:1;fill-rule:nonzero;stroke:none"
             d="m 0,0 c -0.94,-0.457 -2.485,-1.062 -4.52,-1.346 -0.799,-0.111 -1.573,-0.151 -2.285,-0.151 -0.927,0 -1.746,0.069 -2.374,0.148 -0.717,0.09 -1.278,0.201 -1.621,0.279 0.082,-0.262 0.182,-0.521 0.302,-0.772 0.002,-0.007 0.005,-0.014 0.009,-0.018 0.014,-0.03 0.028,-0.06 0.043,-0.09 0.014,-0.029 0.029,-0.057 0.044,-0.084 0.004,-0.008 0.007,-0.016 0.011,-0.023 0.202,-0.38 0.444,-0.729 0.72,-1.032 0.96,-1.049 1.938,-1.216 1.947,-1.217 l 0.015,-0.002 0.014,-0.004 c 0.009,-0.004 0.876,-0.285 2.194,-0.285 1.296,0 2.569,0.262 3.781,0.779 0.899,0.46 1.748,1.157 2.169,1.78 0.325,0.481 0.561,0.994 0.7,1.528 0.075,0.283 0.133,0.738 0.098,1.217 C 0.982,0.528 0.564,0.276 0,0" /></g><g
           transform="translate(248.5908,22.6631)"
           id="g520"><path
             id="path522"
             style="fill:#c6c5ca;fill-opacity:1;fill-rule:nonzero;stroke:none"
             d="m 0,0 c 1.037,0 1.877,-0.841 1.877,-1.878 0,-1.036 -0.84,-1.876 -1.877,-1.876 -1.036,0 -1.877,0.84 -1.877,1.876 C -1.877,-0.841 -1.036,0 0,0 m 5.492,-0.047 c 0.641,0 1.163,-0.52 1.163,-1.161 0,-0.642 -0.522,-1.162 -1.163,-1.162 -0.64,0 -1.161,0.52 -1.161,1.162 0,0.641 0.521,1.161 1.161,1.161 M -2.685,-0.49 c -0.027,-0.04 -0.434,-0.617 -0.756,-1.502 -0.241,-0.663 -0.23,-1.629 -0.23,-1.64 v -0.002 c 0,-0.226 0.012,-0.45 0.037,-0.673 0,-0.005 0,-0.009 0.002,-0.011 0.002,-0.03 0.007,-0.057 0.009,-0.085 0.021,-0.156 0.046,-0.312 0.08,-0.469 0.466,-0.118 3.251,-0.768 6.363,-0.334 1.951,0.271 3.433,0.849 4.332,1.284 0.747,0.362 1.228,0.691 1.412,0.825 C 8.38,-2.412 7.871,-1.337 7.403,-0.666 6.066,1.243 4.626,1.733 3.886,1.855 3.604,1.9 3.377,1.928 3.057,1.928 2.759,1.928 2.389,1.903 1.896,1.852 1.4,1.801 0.848,1.671 0.208,1.454 -0.69,1.153 -1.503,0.683 -2.143,0.09 L -2.165,0.069 c -0.094,-0.087 -0.292,-0.27 -0.52,-0.559" /></g></g></g></g></svg>