<svg id="Capa_1" enable-background="new 0 0 511.807 511.807" height="512" viewBox="0 0 511.807 511.807" width="512" xmlns="http://www.w3.org/2000/svg"><path d="m98.694 417.338c-54.42 0-98.694-44.274-98.694-98.694s44.274-98.694 98.694-98.694 98.694 44.274 98.694 98.694-44.273 98.694-98.694 98.694zm0-167.389c-37.878 0-68.694 30.817-68.694 68.695s30.816 68.695 68.694 68.695 68.694-30.816 68.694-68.695c.001-37.878-30.815-68.695-68.694-68.695z" fill="#47568c"/><path d="m413.112 417.338c-54.42 0-98.694-44.274-98.694-98.695s44.274-98.694 98.694-98.694 98.694 44.274 98.694 98.694-44.273 98.695-98.694 98.695zm0-167.389c-37.878 0-68.694 30.816-68.694 68.694s30.816 68.695 68.694 68.695 68.694-30.816 68.694-68.695c.001-37.877-30.815-68.694-68.694-68.694z" fill="#47568c"/><path d="m413.112 417.338c-54.42 0-98.694-44.274-98.694-98.695s44.274-98.694 98.694-98.694 98.694 44.274 98.694 98.694-44.273 98.695-98.694 98.695zm0-167.389c-37.878 0-68.694 30.816-68.694 68.694s30.816 68.695 68.694 68.695 68.694-30.816 68.694-68.695c.001-37.877-30.815-68.694-68.694-68.694z" fill="#2c3b73"/><path d="m361.076 124.468h42.792v-30h-85.069l18.774 53.667-77.304 142.099c-1.58-.269-3.201-.417-4.857-.417-1.721 0-3.404.16-5.042.451l-73.067-134.324h28.588v-30h-104.778v30h42.039l9.695 17.823-78.186 159.877h156.143c5.07 8.286 14.203 13.828 24.608 13.828 15.896 0 28.828-12.932 28.828-28.828 0-2.561-.34-5.044-.97-7.41l67.669-124.892 48.015 137.254 28.317-9.906zm-238.348 179.176 47.705-97.549 53.063 97.549z" fill="#61729b"/><path d="m361.076 124.468h42.792v-30h-85.069l18.774 53.667-77.304 142.099c-1.58-.269-3.201-.417-4.857-.417v9.345 34.482 13.828c15.896 0 28.828-12.932 28.828-28.828 0-2.561-.34-5.044-.97-7.41l67.669-124.892 48.015 137.254 28.317-9.906z" fill="#47568c"/></svg>