<svg height="512pt" viewBox="0 -131 512 512" width="512pt" xmlns="http://www.w3.org/2000/svg"><path d="m485.984375 207.640625h-459.96875c-11.496094 0-20.8125-9.320313-20.8125-20.8125v-7.285156c0-11.496094 9.316406-20.8125 20.8125-20.8125h459.96875c11.492187 0 20.8125 9.316406 20.8125 20.8125v7.285156c0 11.492187-9.320313 20.8125-20.8125 20.8125zm0 0" fill="#b46e5a"/><path d="m485.984375 158.730469h-185.238281l41.90625 24.503906c3.667968 2.144531 2.148437 7.753906-2.097656 7.753906h-109.789063c-4.246094 0-5.769531-5.609375-2.101563-7.753906l41.90625-24.503906h-199.804687l37.460937 24.617187c3.457032 2.269532 1.847657 7.640625-2.285156 7.640625h-79.925781c-9.882813 0-18.136719-6.890625-20.265625-16.128906-.347656 1.507813-.546875 3.070313-.546875 4.683594v7.285156c0 11.496094 9.316406 20.8125 20.8125 20.8125h459.96875c11.492187 0 20.8125-9.316406 20.8125-20.8125v-7.285156c0-11.496094-9.320313-20.8125-20.8125-20.8125zm0 0" fill="#a65d4e"/><path d="m173.789062 158.730469h-149.855468c-8.042969 0-14.566406-6.523438-14.566406-14.570313v-10.40625c0-8.042968 6.523437-14.566406 14.566406-14.566406h149.855468zm0 0" fill="#ef9aa0"/><path d="m173.789062 119.183594h-149.855468c-8.042969 0-14.566406 6.523437-14.566406 14.570312l10.265624 4.515625.378907.160157c9.351562 3.800781 19.210937 5.730468 29.304687 5.730468h.003906c10.039063 0 19.988282-1.945312 29.289063-5.726562l3.183594-1.292969c4.863281-1.976563 9.984375-3.300781 15.21875-3.691406 7.609375-.5625 15.050781.605469 22.042969 3.445312l3.777343 1.539063c7.664063 3.113281 15.675781 4.957031 23.871094 5.519531 2.582031.179687 4.402344 2.605469 3.796875 5.121094-1.023438 4.234375-4.265625 9.65625-14.175781 9.65625h37.464843zm0 0" fill="#ea7f87"/><path d="m173.789062 119.183594h164.421876v39.546875h-164.421876zm0 0" fill="#ef9aa0"/><path d="m338.210938 119.183594h-164.421876v21.894531c2.582032-.75 5.136719-1.625 7.648438-2.648437l3.164062-1.285157c4.863282-1.976562 9.988282-3.304687 15.222657-3.695312 7.609375-.5625 15.054687.605469 22.046875 3.445312l2.929687 1.191407c8.472657 3.445312 17.453125 5.585937 26.589844 5.992187 11.335937.507813 22.414063-1.398437 32.863281-5.644531l3.773438-1.539063c5.851562-2.375 12.015625-3.582031 18.332031-3.582031h.089844c4.925781.007812 8.867187 4.113281 8.867187 9.039062v1.808594c0 8.046875-6.523437 14.570313-14.570312 14.570313h37.464844zm0 0" fill="#ea7f87"/><path d="m488.066406 158.730469h-149.855468v-39.546875h149.855468c8.042969 0 14.566406 6.523437 14.566406 14.570312v10.40625c0 8.046875-6.523437 14.570313-14.566406 14.570313zm0 0" fill="#ef9aa0"/><path d="m338.210938 133.753906c0-8.046875 7.078124-14.570312 14.570312-14.570312" fill="#ef9aa0"/><path d="m352.78125 158.730469c-7.492188 0-14.570312-6.523438-14.570312-14.570313" fill="#ef9aa0"/><path d="m488.066406 119.183594h-149.855468v22.464844c6.367187 1.660156 12.910156 2.511718 19.554687 2.511718 10.09375 0 19.953125-1.925781 29.300781-5.726562l3.167969-1.289063c4.863281-1.976562 9.984375-3.304687 15.214844-3.695312 7.613281-.5625 15.0625.601562 22.054687 3.445312l3.777344 1.539063c9.351562 3.800781 19.207031 5.726562 29.304688 5.726562 5.695312 0 11.316406-.625 16.816406-1.84375 1.195312-.265625 2.335937.621094 2.335937 1.84375 0 8.046875-6.523437 14.570313-14.566406 14.570313h22.890625c8.046875 0 14.570312-6.523438 14.570312-14.570313v-10.40625c0-8.046875-6.523437-14.570312-14.566406-14.570312zm0 0" fill="#ea7f87"/><path d="m256 90.046875h-256c0-77.433594 195.253906-90.046875 256-90.046875s256 12.613281 256 90.046875zm0 0" fill="#fdc26b"/><path d="m0 101.175781c0 8.253907 4.878906 15.726563 12.433594 19.050781l13.066406 5.75c15.269531 6.207032 32.359375 6.207032 47.632812 0l3.777344-1.535156c15.269532-6.210937 32.359375-6.210937 47.628906 0l3.777344 1.535156c15.273438 6.207032 32.363282 6.207032 47.632813 0l3.777343-1.535156c15.269532-6.207031 32.359376-6.207031 47.628907 0l3.78125 1.535156c15.269531 6.207032 32.359375 6.207032 47.628906 0l3.777344-1.535156c15.269531-6.207031 32.359375-6.207031 47.632812 0l3.773438 1.535156c15.269531 6.207032 32.363281 6.207032 47.632812 0l3.777344-1.535156c15.269531-6.207031 32.363281-6.207031 47.632813 0l3.777343 1.535156c15.269531 6.207032 32.359375 6.207032 47.628907 0l14.625-5.941406c7.84375-3.191406 12.976562-10.8125 12.976562-19.28125v-10.707031h-512zm0 0" fill="#dcf3a3"/><path d="m466.210938 90.046875v10.707031c0 1.800782-.234376 3.566406-.679688 5.257813-1.292969 4.9375-6.03125 8.148437-11.109375 7.65625-6.011719-.582031-11.957031-2.027344-17.652344-4.339844l-3.777343-1.539063c-15.273438-6.203124-32.363282-6.203124-47.632813 0l-3.773437 1.535157c-15.273438 6.207031-32.363282 6.207031-47.636719 0l-3.777344-1.535157c-15.269531-6.207031-32.359375-6.207031-47.628906 0l-3.773438 1.535157c-15.273437 6.210937-32.363281 6.210937-47.632812 0l-3.777344-1.535157c-15.269531-6.207031-32.355469-6.207031-47.625 0l-3.785156 1.539063c-15.269531 6.207031-32.359375 6.207031-47.628907-.003906l-3.78125-1.535157c-15.269531-6.207031-32.359374-6.207031-47.628906 0l-3.773437 1.535157c-15.273438 6.210937-32.363281 6.207031-47.632813 0l-13.070312-5.746094c-5.820313-2.558594-10.039063-7.585937-11.675782-13.53125h-.757812v11.128906c0 8.253907 4.878906 15.730469 12.433594 19.054688l13.066406 5.746093c15.269531 6.207032 32.359375 6.207032 47.632812 0l3.773438-1.535156c15.273438-6.207031 32.363281-6.207031 47.632812 0l3.773438 1.535156c15.273438 6.207032 32.363281 6.207032 47.636719 0l3.773437-1.535156c15.273438-6.207031 32.367188-6.207031 47.636719 0l3.773437 1.535156c15.269532 6.207032 32.363282 6.207032 47.632813 0l3.769531-1.53125c15.273438-6.210937 32.367188-6.210937 47.636719-.003906l3.777344 1.535156c15.269531 6.207032 32.363281 6.207032 47.632812 0l3.777344-1.535156c15.269531-6.207031 32.359375-6.207031 47.628906 0l3.78125 1.535156c15.269531 6.207032 32.359375 6.207032 47.628907 0l14.625-5.941406c7.84375-3.1875 12.972656-10.8125 12.972656-19.28125v-10.703125h-45.785156zm0 0" fill="#cbed74"/><g fill="#fcb54c"><path d="m364.042969 8.125c55.109375 14.457031 102.183593 39.464844 102.183593 81.921875h45.773438c0-48.316406-76.023438-71.398437-147.957031-81.921875zm0 0"/><path d="m271.765625.230469v12.382812c0 22.335938-7.0625 53.609375-15.765625 53.609375s-15.765625-31.273437-15.765625-53.609375v-12.382812c5.917969-.1562502 11.214844-.230469 15.765625-.230469s9.847656.0742188 15.765625.230469zm0 0"/><path d="m178.214844 4.351562v8.261719c0 22.335938-7.0625 53.609375-15.765625 53.609375s-15.765625-31.273437-15.765625-53.609375v-4.296875c10.679687-1.589844 21.273437-2.890625 31.53125-3.964844zm0 0"/><path d="m365.316406 8.3125v4.300781c0 22.335938-7.0625 53.609375-15.765625 53.609375s-15.765625-31.273437-15.765625-53.609375v-8.261719c10.257813 1.074219 20.851563 2.375 31.53125 3.960938zm0 0"/></g><path d="m512 228.453125c0 11.496094-9.316406 20.8125-20.8125 20.8125h-470.375c-11.496094 0-20.8125-9.316406-20.8125-20.8125v-12.488281c0-4.597656 3.726562-8.324219 8.324219-8.324219h495.351562c4.597657 0 8.324219 3.726563 8.324219 8.324219zm0 0" fill="#fedca9"/><path d="m465.171875 207.640625v20.8125c0 11.496094-9.320313 20.8125-20.8125 20.8125h46.828125c11.496094 0 20.8125-9.316406 20.8125-20.8125v-12.488281c0-4.597656-3.726562-8.324219-8.324219-8.324219zm0 0" fill="#fdc26b"/><path d="m41.105469 158.730469 50.917969 33.460937c26.4375 17.371094 60.4375 18.257813 87.746093 2.292969l61.140625-35.753906zm0 0" fill="#ffea84"/><path d="m203.445312 158.730469-61.140624 35.753906c-7.375 4.308594-15.234376 7.378906-23.304688 9.242187 20.351562 4.699219 42.117188 1.660157 60.765625-9.242187l61.144531-35.753906zm0 0" fill="#ffe046"/><path d="m470.894531 158.730469-50.917969 33.460937c-26.4375 17.371094-60.4375 18.257813-87.746093 2.292969l-61.140625-35.753906zm0 0" fill="#ffea84"/><path d="m437.59375 158.730469-50.917969 33.460937c-8.996093 5.910156-18.867187 9.910156-29.054687 11.988282 21.207031 4.320312 43.671875.289062 62.355468-11.988282l50.917969-33.460937zm0 0" fill="#ffe046"/></svg>